<svg width="1748" height="850" viewBox="0 0 1748 850" fill="none" xmlns="http://www.w3.org/2000/svg">
<g clip-path="url(#clip0_455_62)">
<rect width="1748" height="850" fill="white"/>
<path d="M27.0374 16.08L21.0854 17.904C20.7494 16.032 19.2134 13.104 14.8934 13.104C11.6774 13.104 9.56538 15.168 9.56538 17.424C9.56538 19.296 10.7654 20.784 13.2614 21.264L18.0134 22.176C24.2054 23.376 27.5174 27.408 27.5174 32.208C27.5174 37.44 23.1494 42.72 15.2294 42.72C6.20538 42.72 2.22138 36.912 1.69337 32.064L7.83738 30.432C8.12538 33.792 10.4774 36.816 15.2774 36.816C18.8294 36.816 20.7974 35.04 20.7974 32.64C20.7974 30.672 19.3094 29.136 16.6694 28.608L11.9174 27.648C6.49338 26.544 2.98938 23.04 2.98938 17.904C2.98938 11.856 8.41338 7.248 14.8454 7.248C23.1014 7.248 26.2694 12.24 27.0374 16.08ZM37.7571 27.504H48.3171C48.2211 25.152 46.6851 22.848 43.0371 22.848C39.7251 22.848 37.9011 25.344 37.7571 27.504ZM48.9411 33.648L54.2691 35.232C53.0691 39.312 49.3251 42.72 43.5171 42.72C37.0371 42.72 31.3251 38.064 31.3251 30.096C31.3251 22.56 36.8931 17.664 42.9411 17.664C50.2371 17.664 54.6051 22.32 54.6051 29.904C54.6051 30.816 54.5091 31.776 54.5091 31.872H37.6131C37.7571 34.992 40.3971 37.248 43.5651 37.248C46.5411 37.248 48.1731 35.76 48.9411 33.648ZM66.148 42H59.764V7.248H66.148V42ZM77.6946 27.504H88.2546C88.1586 25.152 86.6226 22.848 82.9746 22.848C79.6626 22.848 77.8386 25.344 77.6946 27.504ZM88.8786 33.648L94.2066 35.232C93.0066 39.312 89.2626 42.72 83.4546 42.72C76.9746 42.72 71.2626 38.064 71.2626 30.096C71.2626 22.56 76.8306 17.664 82.8786 17.664C90.1746 17.664 94.5426 22.32 94.5426 29.904C94.5426 30.816 94.4466 31.776 94.4466 31.872H77.5506C77.6946 34.992 80.3346 37.248 83.5026 37.248C86.4786 37.248 88.1106 35.76 88.8786 33.648ZM110.646 23.568C107.382 23.568 104.646 25.92 104.646 30.192C104.646 34.464 107.43 36.864 110.694 36.864C113.958 36.864 115.59 34.704 116.118 32.88L121.734 34.752C120.677 38.688 116.982 42.72 110.694 42.72C103.734 42.72 98.2615 37.44 98.2615 30.192C98.2615 22.896 103.638 17.664 110.502 17.664C116.934 17.664 120.582 21.648 121.59 25.632L115.878 27.552C115.302 25.584 113.814 23.568 110.646 23.568ZM134.677 11.328V18.384H139.429V24.048H134.677V33.936C134.677 36 135.637 36.672 137.461 36.672C138.229 36.672 139.093 36.576 139.429 36.48V41.76C138.853 42 137.701 42.336 135.829 42.336C131.221 42.336 128.341 39.6 128.341 35.04V24.048H124.069V18.384H125.269C127.765 18.384 128.917 16.752 128.917 14.64V11.328H134.677ZM168.882 18.384H175.602L180.69 33.6L185.058 18.384H191.394L184.002 42H177.618L172.098 25.872L166.674 42H160.194L152.658 18.384H159.378L163.746 33.552L168.882 18.384ZM201.851 28.128V42H195.467V7.248H201.851V20.352C203.387 18.528 205.979 17.76 208.235 17.76C214.235 17.76 217.019 21.936 217.019 27.12V42H210.635V28.224C210.635 25.584 209.339 23.52 206.267 23.52C203.579 23.52 201.995 25.536 201.851 28.128ZM229.695 42H223.311V18.384H229.695V42ZM222.543 10.656C222.543 8.448 224.319 6.672 226.479 6.672C228.687 6.672 230.415 8.448 230.415 10.656C230.415 12.768 228.687 14.544 226.479 14.544C224.319 14.544 222.543 12.768 222.543 10.656ZM247.146 23.568C243.882 23.568 241.146 25.92 241.146 30.192C241.146 34.464 243.93 36.864 247.194 36.864C250.458 36.864 252.09 34.704 252.618 32.88L258.234 34.752C257.177 38.688 253.482 42.72 247.194 42.72C240.234 42.72 234.762 37.44 234.762 30.192C234.762 22.896 240.138 17.664 247.002 17.664C253.434 17.664 257.082 21.648 258.09 25.632L252.378 27.552C251.802 25.584 250.314 23.568 247.146 23.568ZM269.257 28.128V42H262.873V7.248H269.257V20.352C270.793 18.528 273.385 17.76 275.641 17.76C281.641 17.76 284.425 21.936 284.425 27.12V42H278.041V28.224C278.041 25.584 276.745 23.52 273.673 23.52C270.985 23.52 269.401 25.536 269.257 28.128ZM315.038 18.384H321.758L326.846 33.6L331.214 18.384H337.55L330.158 42H323.774L318.254 25.872L312.83 42H306.35L298.814 18.384H305.534L309.902 33.552L315.038 18.384ZM352.146 36.912C355.266 36.912 358.146 34.656 358.146 30.192C358.146 25.728 355.266 23.472 352.146 23.472C349.026 23.472 346.146 25.728 346.146 30.192C346.146 34.608 349.026 36.912 352.146 36.912ZM352.146 17.664C359.202 17.664 364.53 22.896 364.53 30.192C364.53 37.44 359.202 42.72 352.146 42.72C345.09 42.72 339.762 37.44 339.762 30.192C339.762 22.896 345.09 17.664 352.146 17.664ZM384.008 18.288V24.72C383.288 24.576 382.664 24.528 382.088 24.528C378.824 24.528 375.992 26.112 375.992 31.2V42H369.608V18.384H375.8V21.888C377.24 18.768 380.504 18.192 382.52 18.192C383.048 18.192 383.528 18.24 384.008 18.288ZM411.113 18.384L401.657 28.32L411.305 42H403.481L397.241 32.976L394.601 35.76V42H388.217V7.248H394.601V27.168L402.761 18.384H411.113ZM431.413 27.504H441.973C441.877 25.152 440.341 22.848 436.693 22.848C433.381 22.848 431.557 25.344 431.413 27.504ZM442.597 33.648L447.925 35.232C446.725 39.312 442.981 42.72 437.173 42.72C430.693 42.72 424.981 38.064 424.981 30.096C424.981 22.56 430.549 17.664 436.597 17.664C443.893 17.664 448.261 22.32 448.261 29.904C448.261 30.816 448.165 31.776 448.165 31.872H431.269C431.413 34.992 434.053 37.248 437.221 37.248C440.197 37.248 441.829 35.76 442.597 33.648ZM459.804 28.416V42H453.42V18.384H459.612V21.312C461.052 18.864 463.884 17.76 466.428 17.76C472.284 17.76 474.972 21.936 474.972 27.12V42H468.588V28.224C468.588 25.584 467.292 23.52 464.22 23.52C461.436 23.52 459.804 25.68 459.804 28.416ZM503.214 18.384L494.046 42H487.662L478.014 18.384H485.022L490.878 34.224L496.494 18.384H503.214ZM513.664 42H507.28V18.384H513.664V42ZM506.512 10.656C506.512 8.448 508.288 6.672 510.448 6.672C512.656 6.672 514.384 8.448 514.384 10.656C514.384 12.768 512.656 14.544 510.448 14.544C508.288 14.544 506.512 12.768 506.512 10.656ZM534.57 18.288V24.72C533.85 24.576 533.226 24.528 532.65 24.528C529.386 24.528 526.554 26.112 526.554 31.2V42H520.17V18.384H526.362V21.888C527.802 18.768 531.066 18.192 533.082 18.192C533.61 18.192 534.09 18.24 534.57 18.288ZM549.442 36.912C552.562 36.912 555.442 34.656 555.442 30.192C555.442 25.728 552.562 23.472 549.442 23.472C546.322 23.472 543.442 25.728 543.442 30.192C543.442 34.608 546.322 36.912 549.442 36.912ZM549.442 17.664C556.498 17.664 561.826 22.896 561.826 30.192C561.826 37.44 556.498 42.72 549.442 42.72C542.386 42.72 537.058 37.44 537.058 30.192C537.058 22.896 542.386 17.664 549.442 17.664ZM573.289 28.416V42H566.905V18.384H573.097V21.312C574.537 18.864 577.369 17.76 579.913 17.76C585.769 17.76 588.457 21.936 588.457 27.12V42H582.073V28.224C582.073 25.584 580.777 23.52 577.705 23.52C574.921 23.52 573.289 25.68 573.289 28.416ZM601.132 42H594.748V18.384H600.844V21.264C602.14 18.96 605.164 17.712 607.756 17.712C610.972 17.712 613.564 19.104 614.764 21.648C616.636 18.768 619.132 17.712 622.252 17.712C626.62 17.712 630.796 20.352 630.796 26.688V42H624.604V27.984C624.604 25.44 623.356 23.52 620.428 23.52C617.692 23.52 616.06 25.632 616.06 28.176V42H609.724V27.984C609.724 25.44 608.428 23.52 605.548 23.52C602.764 23.52 601.132 25.584 601.132 28.176V42ZM642.117 27.504H652.677C652.581 25.152 651.045 22.848 647.397 22.848C644.085 22.848 642.261 25.344 642.117 27.504ZM653.301 33.648L658.629 35.232C657.429 39.312 653.685 42.72 647.877 42.72C641.397 42.72 635.685 38.064 635.685 30.096C635.685 22.56 641.253 17.664 647.301 17.664C654.597 17.664 658.965 22.32 658.965 29.904C658.965 30.816 658.869 31.776 658.869 31.872H641.973C642.117 34.992 644.757 37.248 647.924 37.248C650.901 37.248 652.533 35.76 653.301 33.648ZM670.507 28.416V42H664.123V18.384H670.315V21.312C671.755 18.864 674.587 17.76 677.131 17.76C682.987 17.76 685.675 21.936 685.675 27.12V42H679.291V28.224C679.291 25.584 677.995 23.52 674.923 23.52C672.139 23.52 670.507 25.68 670.507 28.416ZM700.271 11.328V18.384H705.023V24.048H700.271V33.936C700.271 36 701.231 36.672 703.055 36.672C703.823 36.672 704.687 36.576 705.023 36.48V41.76C704.447 42 703.295 42.336 701.423 42.336C696.815 42.336 693.935 39.6 693.935 35.04V24.048H689.663V18.384H690.863C693.359 18.384 694.511 16.752 694.511 14.64V11.328H700.271ZM147.144 92H140.952V57.248H147.24V70.976C148.296 69.296 150.888 67.76 154.392 67.76C161.304 67.76 165.288 73.088 165.288 80.096C165.288 87.248 160.872 92.576 154.152 92.576C150.888 92.576 148.392 91.136 147.144 89.12V92ZM158.904 80.144C158.904 75.824 156.312 73.472 153.048 73.472C149.832 73.472 147.144 75.824 147.144 80.144C147.144 84.416 149.832 86.864 153.048 86.864C156.312 86.864 158.904 84.464 158.904 80.144ZM175.476 77.504H186.036C185.94 75.152 184.404 72.848 180.756 72.848C177.444 72.848 175.62 75.344 175.476 77.504ZM186.66 83.648L191.988 85.232C190.788 89.312 187.044 92.72 181.236 92.72C174.756 92.72 169.044 88.064 169.044 80.096C169.044 72.56 174.612 67.664 180.66 67.664C187.956 67.664 192.324 72.32 192.324 79.904C192.324 80.816 192.228 81.776 192.228 81.872H175.332C175.476 84.992 178.116 87.248 181.284 87.248C184.26 87.248 185.892 85.76 186.66 83.648ZM195.899 85.424L201.371 84.224C201.515 86.096 202.907 87.824 205.691 87.824C207.803 87.824 208.811 86.72 208.811 85.472C208.811 84.416 208.091 83.552 206.267 83.168L203.147 82.448C198.587 81.44 196.523 78.704 196.523 75.392C196.523 71.168 200.267 67.664 205.355 67.664C212.075 67.664 214.331 71.936 214.619 74.48L209.291 75.68C209.099 74.288 208.091 72.512 205.403 72.512C203.723 72.512 202.379 73.52 202.379 74.864C202.379 76.016 203.243 76.736 204.539 76.976L207.899 77.696C212.555 78.656 214.907 81.488 214.907 84.944C214.907 88.784 211.931 92.72 205.739 92.72C198.635 92.72 196.187 88.112 195.899 85.424ZM228.381 61.328V68.384H233.133V74.048H228.381V83.936C228.381 86 229.341 86.672 231.165 86.672C231.933 86.672 232.797 86.576 233.133 86.48V91.76C232.557 92 231.405 92.336 229.533 92.336C224.925 92.336 222.045 89.6 222.045 85.04V74.048H217.773V68.384H218.973C221.469 68.384 222.621 66.752 222.621 64.64V61.328H228.381ZM248.263 85.568C248.263 81.344 251.383 78.992 255.319 78.416L261.127 77.552C262.471 77.36 262.903 76.688 262.903 75.872C262.903 74.192 261.607 72.8 258.919 72.8C256.135 72.8 254.599 74.576 254.407 76.64L248.743 75.44C249.127 71.744 252.535 67.664 258.871 67.664C266.359 67.664 269.143 71.888 269.143 76.64V88.256C269.143 89.504 269.287 91.184 269.431 92H263.575C263.431 91.376 263.335 90.08 263.335 89.168C262.135 91.04 259.879 92.672 256.375 92.672C251.335 92.672 248.263 89.264 248.263 85.568ZM257.719 87.92C260.407 87.92 262.903 86.624 262.903 82.448V81.392L257.575 82.208C255.943 82.448 254.647 83.36 254.647 85.184C254.647 86.576 255.655 87.92 257.719 87.92ZM281.867 101.12H275.483V68.384H281.675V71.264C282.731 69.44 285.371 67.856 288.923 67.856C295.835 67.856 299.819 73.136 299.819 80.144C299.819 87.296 295.355 92.576 288.683 92.576C285.419 92.576 283.019 91.28 281.867 89.696V101.12ZM293.531 80.192C293.531 76.016 290.939 73.568 287.675 73.568C284.411 73.568 281.771 76.016 281.771 80.192C281.771 84.368 284.411 86.864 287.675 86.864C290.939 86.864 293.531 84.416 293.531 80.192ZM311.351 101.12H304.967V68.384H311.159V71.264C312.215 69.44 314.855 67.856 318.407 67.856C325.319 67.856 329.303 73.136 329.303 80.144C329.303 87.296 324.839 92.576 318.167 92.576C314.903 92.576 312.503 91.28 311.351 89.696V101.12ZM323.015 80.192C323.015 76.016 320.423 73.568 317.159 73.568C313.895 73.568 311.255 76.016 311.255 80.192C311.255 84.368 313.895 86.864 317.159 86.864C320.423 86.864 323.015 84.416 323.015 80.192ZM340.836 92H334.452V57.248H340.836V92ZM353.726 92H347.342V68.384H353.726V92ZM346.574 60.656C346.574 58.448 348.35 56.672 350.51 56.672C352.718 56.672 354.446 58.448 354.446 60.656C354.446 62.768 352.718 64.544 350.51 64.544C348.35 64.544 346.574 62.768 346.574 60.656ZM365.273 77.504H375.833C375.737 75.152 374.201 72.848 370.553 72.848C367.241 72.848 365.417 75.344 365.273 77.504ZM376.457 83.648L381.785 85.232C380.585 89.312 376.841 92.72 371.033 92.72C364.553 92.72 358.841 88.064 358.841 80.096C358.841 72.56 364.409 67.664 370.457 67.664C377.753 67.664 382.121 72.32 382.121 79.904C382.121 80.816 382.025 81.776 382.025 81.872H365.129C365.273 84.992 367.913 87.248 371.081 87.248C374.057 87.248 375.689 85.76 376.457 83.648ZM385.696 85.424L391.168 84.224C391.312 86.096 392.704 87.824 395.488 87.824C397.6 87.824 398.608 86.72 398.608 85.472C398.608 84.416 397.888 83.552 396.064 83.168L392.944 82.448C388.384 81.44 386.32 78.704 386.32 75.392C386.32 71.168 390.064 67.664 395.152 67.664C401.872 67.664 404.128 71.936 404.416 74.48L399.088 75.68C398.896 74.288 397.888 72.512 395.2 72.512C393.52 72.512 392.176 73.52 392.176 74.864C392.176 76.016 393.04 76.736 394.336 76.976L397.696 77.696C402.352 78.656 404.704 81.488 404.704 84.944C404.704 88.784 401.728 92.72 395.536 92.72C388.432 92.72 385.984 88.112 385.696 85.424ZM428.724 61.328V68.384H433.476V74.048H428.724V83.936C428.724 86 429.684 86.672 431.508 86.672C432.276 86.672 433.14 86.576 433.476 86.48V91.76C432.9 92 431.748 92.336 429.876 92.336C425.268 92.336 422.388 89.6 422.388 85.04V74.048H418.116V68.384H419.316C421.812 68.384 422.964 66.752 422.964 64.64V61.328H428.724ZM449.317 86.912C452.437 86.912 455.317 84.656 455.317 80.192C455.317 75.728 452.437 73.472 449.317 73.472C446.197 73.472 443.317 75.728 443.317 80.192C443.317 84.608 446.197 86.912 449.317 86.912ZM449.317 67.664C456.373 67.664 461.701 72.896 461.701 80.192C461.701 87.44 456.373 92.72 449.317 92.72C442.261 92.72 436.933 87.44 436.933 80.192C436.933 72.896 442.261 67.664 449.317 67.664ZM485.449 101.312H478.681L484.249 89.024L474.217 68.384H481.369L487.657 82.208L493.465 68.384H500.281L485.449 101.312ZM514.052 86.912C517.172 86.912 520.052 84.656 520.052 80.192C520.052 75.728 517.172 73.472 514.052 73.472C510.932 73.472 508.052 75.728 508.052 80.192C508.052 84.608 510.932 86.912 514.052 86.912ZM514.052 67.664C521.108 67.664 526.436 72.896 526.436 80.192C526.436 87.44 521.108 92.72 514.052 92.72C506.996 92.72 501.668 87.44 501.668 80.192C501.668 72.896 506.996 67.664 514.052 67.664ZM546.97 92C546.874 91.52 546.778 90.416 546.778 89.456C545.482 91.664 542.746 92.624 540.25 92.624C534.538 92.624 531.274 88.448 531.274 83.312V68.384H537.658V82.016C537.658 84.656 539.002 86.768 541.978 86.768C544.81 86.768 546.442 84.848 546.442 82.112V68.384H552.826V87.728C552.826 89.552 552.97 91.184 553.066 92H546.97ZM558.302 87.968C558.302 85.568 560.27 83.6 562.67 83.6C565.118 83.6 567.086 85.568 567.086 87.968C567.086 90.368 565.118 92.336 562.67 92.336C560.27 92.336 558.302 90.368 558.302 87.968Z" fill="black"/>
<path d="M1085.85 16.08L1079.9 17.904C1079.56 16.032 1078.03 13.104 1073.71 13.104C1070.49 13.104 1068.38 15.168 1068.38 17.424C1068.38 19.296 1069.58 20.784 1072.07 21.264L1076.83 22.176C1083.02 23.376 1086.33 27.408 1086.33 32.208C1086.33 37.44 1081.96 42.72 1074.04 42.72C1065.02 42.72 1061.03 36.912 1060.51 32.064L1066.65 30.432C1066.94 33.792 1069.29 36.816 1074.09 36.816C1077.64 36.816 1079.61 35.04 1079.61 32.64C1079.61 30.672 1078.12 29.136 1075.48 28.608L1070.73 27.648C1065.31 26.544 1061.8 23.04 1061.8 17.904C1061.8 11.856 1067.23 7.248 1073.66 7.248C1081.91 7.248 1085.08 12.24 1085.85 16.08ZM1096.57 27.504H1107.13C1107.03 25.152 1105.5 22.848 1101.85 22.848C1098.54 22.848 1096.71 25.344 1096.57 27.504ZM1107.75 33.648L1113.08 35.232C1111.88 39.312 1108.14 42.72 1102.33 42.72C1095.85 42.72 1090.14 38.064 1090.14 30.096C1090.14 22.56 1095.71 17.664 1101.75 17.664C1109.05 17.664 1113.42 22.32 1113.42 29.904C1113.42 30.816 1113.32 31.776 1113.32 31.872H1096.43C1096.57 34.992 1099.21 37.248 1102.38 37.248C1105.35 37.248 1106.99 35.76 1107.75 33.648ZM1124.96 42H1118.58V7.248H1124.96V42ZM1136.51 27.504H1147.07C1146.97 25.152 1145.44 22.848 1141.79 22.848C1138.48 22.848 1136.65 25.344 1136.51 27.504ZM1147.69 33.648L1153.02 35.232C1151.82 39.312 1148.08 42.72 1142.27 42.72C1135.79 42.72 1130.08 38.064 1130.08 30.096C1130.08 22.56 1135.64 17.664 1141.69 17.664C1148.99 17.664 1153.36 22.32 1153.36 29.904C1153.36 30.816 1153.26 31.776 1153.26 31.872H1136.36C1136.51 34.992 1139.15 37.248 1142.32 37.248C1145.29 37.248 1146.92 35.76 1147.69 33.648ZM1169.46 23.568C1166.19 23.568 1163.46 25.92 1163.46 30.192C1163.46 34.464 1166.24 36.864 1169.51 36.864C1172.77 36.864 1174.4 34.704 1174.93 32.88L1180.55 34.752C1179.49 38.688 1175.79 42.72 1169.51 42.72C1162.55 42.72 1157.07 37.44 1157.07 30.192C1157.07 22.896 1162.45 17.664 1169.31 17.664C1175.75 17.664 1179.39 21.648 1180.4 25.632L1174.69 27.552C1174.11 25.584 1172.63 23.568 1169.46 23.568ZM1193.49 11.328V18.384H1198.24V24.048H1193.49V33.936C1193.49 36 1194.45 36.672 1196.27 36.672C1197.04 36.672 1197.91 36.576 1198.24 36.48V41.76C1197.67 42 1196.51 42.336 1194.64 42.336C1190.03 42.336 1187.15 39.6 1187.15 35.04V24.048H1182.88V18.384H1184.08C1186.58 18.384 1187.73 16.752 1187.73 14.64V11.328H1193.49ZM1222.22 11.328V18.384H1226.98V24.048H1222.22V33.936C1222.22 36 1223.18 36.672 1225.01 36.672C1225.78 36.672 1226.64 36.576 1226.98 36.48V41.76C1226.4 42 1225.25 42.336 1223.38 42.336C1218.77 42.336 1215.89 39.6 1215.89 35.04V24.048H1211.62V18.384H1212.82C1215.31 18.384 1216.46 16.752 1216.46 14.64V11.328H1222.22ZM1238.49 28.128V42H1232.11V7.248H1238.49V20.352C1240.03 18.528 1242.62 17.76 1244.88 17.76C1250.88 17.76 1253.66 21.936 1253.66 27.12V42H1247.28V28.224C1247.28 25.584 1245.98 23.52 1242.91 23.52C1240.22 23.52 1238.64 25.536 1238.49 28.128ZM1264.99 27.504H1275.55C1275.46 25.152 1273.92 22.848 1270.27 22.848C1266.96 22.848 1265.14 25.344 1264.99 27.504ZM1276.18 33.648L1281.5 35.232C1280.3 39.312 1276.56 42.72 1270.75 42.72C1264.27 42.72 1258.56 38.064 1258.56 30.096C1258.56 22.56 1264.13 17.664 1270.18 17.664C1277.47 17.664 1281.84 22.32 1281.84 29.904C1281.84 30.816 1281.74 31.776 1281.74 31.872H1264.85C1264.99 34.992 1267.63 37.248 1270.8 37.248C1273.78 37.248 1275.41 35.76 1276.18 33.648ZM1309.33 23.568C1306.07 23.568 1303.33 25.92 1303.33 30.192C1303.33 34.464 1306.12 36.864 1309.38 36.864C1312.65 36.864 1314.28 34.704 1314.81 32.88L1320.42 34.752C1319.36 38.688 1315.67 42.72 1309.38 42.72C1302.42 42.72 1296.95 37.44 1296.95 30.192C1296.95 22.896 1302.33 17.664 1309.19 17.664C1315.62 17.664 1319.27 21.648 1320.28 25.632L1314.57 27.552C1313.99 25.584 1312.5 23.568 1309.33 23.568ZM1336 36.912C1339.12 36.912 1342 34.656 1342 30.192C1342 25.728 1339.12 23.472 1336 23.472C1332.88 23.472 1330 25.728 1330 30.192C1330 34.608 1332.88 36.912 1336 36.912ZM1336 17.664C1343.06 17.664 1348.39 22.896 1348.39 30.192C1348.39 37.44 1343.06 42.72 1336 42.72C1328.95 42.72 1323.62 37.44 1323.62 30.192C1323.62 22.896 1328.95 17.664 1336 17.664ZM1359.85 42H1353.47V18.384H1359.56V21.264C1360.86 18.96 1363.88 17.712 1366.48 17.712C1369.69 17.712 1372.28 19.104 1373.48 21.648C1375.36 18.768 1377.85 17.712 1380.97 17.712C1385.34 17.712 1389.52 20.352 1389.52 26.688V42H1383.32V27.984C1383.32 25.44 1382.08 23.52 1379.15 23.52C1376.41 23.52 1374.78 25.632 1374.78 28.176V42H1368.44V27.984C1368.44 25.44 1367.15 23.52 1364.27 23.52C1361.48 23.52 1359.85 25.584 1359.85 28.176V42ZM1402.18 42H1395.8V18.384H1401.89V21.264C1403.19 18.96 1406.21 17.712 1408.8 17.712C1412.02 17.712 1414.61 19.104 1415.81 21.648C1417.68 18.768 1420.18 17.712 1423.3 17.712C1427.67 17.712 1431.84 20.352 1431.84 26.688V42H1425.65V27.984C1425.65 25.44 1424.4 23.52 1421.48 23.52C1418.74 23.52 1417.11 25.632 1417.11 28.176V42H1410.77V27.984C1410.77 25.44 1409.48 23.52 1406.6 23.52C1403.81 23.52 1402.18 25.584 1402.18 28.176V42ZM1453.58 42C1453.48 41.52 1453.39 40.416 1453.39 39.456C1452.09 41.664 1449.36 42.624 1446.86 42.624C1441.15 42.624 1437.88 38.448 1437.88 33.312V18.384H1444.27V32.016C1444.27 34.656 1445.61 36.768 1448.59 36.768C1451.42 36.768 1453.05 34.848 1453.05 32.112V18.384H1459.44V37.728C1459.44 39.552 1459.58 41.184 1459.68 42H1453.58ZM1472.35 28.416V42H1465.97V18.384H1472.16V21.312C1473.6 18.864 1476.43 17.76 1478.98 17.76C1484.83 17.76 1487.52 21.936 1487.52 27.12V42H1481.14V28.224C1481.14 25.584 1479.84 23.52 1476.77 23.52C1473.98 23.52 1472.35 25.68 1472.35 28.416ZM1500.19 42H1493.81V18.384H1500.19V42ZM1493.04 10.656C1493.04 8.448 1494.82 6.672 1496.98 6.672C1499.19 6.672 1500.91 8.448 1500.91 10.656C1500.91 12.768 1499.19 14.544 1496.98 14.544C1494.82 14.544 1493.04 12.768 1493.04 10.656ZM1517.65 23.568C1514.38 23.568 1511.65 25.92 1511.65 30.192C1511.65 34.464 1514.43 36.864 1517.69 36.864C1520.96 36.864 1522.59 34.704 1523.12 32.88L1528.73 34.752C1527.68 38.688 1523.98 42.72 1517.69 42.72C1510.73 42.72 1505.26 37.44 1505.26 30.192C1505.26 22.896 1510.64 17.664 1517.5 17.664C1523.93 17.664 1527.58 21.648 1528.59 25.632L1522.88 27.552C1522.3 25.584 1520.81 23.568 1517.65 23.568ZM1531.98 35.568C1531.98 31.344 1535.1 28.992 1539.04 28.416L1544.85 27.552C1546.19 27.36 1546.62 26.688 1546.62 25.872C1546.62 24.192 1545.33 22.8 1542.64 22.8C1539.85 22.8 1538.32 24.576 1538.13 26.64L1532.46 25.44C1532.85 21.744 1536.25 17.664 1542.59 17.664C1550.08 17.664 1552.86 21.888 1552.86 26.64V38.256C1552.86 39.504 1553.01 41.184 1553.15 42H1547.29C1547.15 41.376 1547.05 40.08 1547.05 39.168C1545.85 41.04 1543.6 42.672 1540.09 42.672C1535.05 42.672 1531.98 39.264 1531.98 35.568ZM1541.44 37.92C1544.13 37.92 1546.62 36.624 1546.62 32.448V31.392L1541.29 32.208C1539.66 32.448 1538.37 33.36 1538.37 35.184C1538.37 36.576 1539.37 37.92 1541.44 37.92ZM1567.32 11.328V18.384H1572.07V24.048H1567.32V33.936C1567.32 36 1568.28 36.672 1570.1 36.672C1570.87 36.672 1571.73 36.576 1572.07 36.48V41.76C1571.49 42 1570.34 42.336 1568.47 42.336C1563.86 42.336 1560.98 39.6 1560.98 35.04V24.048H1556.71V18.384H1557.91C1560.41 18.384 1561.56 16.752 1561.56 14.64V11.328H1567.32ZM1583.59 42H1577.2V18.384H1583.59V42ZM1576.43 10.656C1576.43 8.448 1578.21 6.672 1580.37 6.672C1582.58 6.672 1584.31 8.448 1584.31 10.656C1584.31 12.768 1582.58 14.544 1580.37 14.544C1578.21 14.544 1576.43 12.768 1576.43 10.656ZM1601.04 36.912C1604.16 36.912 1607.04 34.656 1607.04 30.192C1607.04 25.728 1604.16 23.472 1601.04 23.472C1597.92 23.472 1595.04 25.728 1595.04 30.192C1595.04 34.608 1597.92 36.912 1601.04 36.912ZM1601.04 17.664C1608.09 17.664 1613.42 22.896 1613.42 30.192C1613.42 37.44 1608.09 42.72 1601.04 42.72C1593.98 42.72 1588.65 37.44 1588.65 30.192C1588.65 22.896 1593.98 17.664 1601.04 17.664ZM1624.88 28.416V42H1618.5V18.384H1624.69V21.312C1626.13 18.864 1628.96 17.76 1631.51 17.76C1637.36 17.76 1640.05 21.936 1640.05 27.12V42H1633.67V28.224C1633.67 25.584 1632.37 23.52 1629.3 23.52C1626.51 23.52 1624.88 25.68 1624.88 28.416ZM1032.55 92H1026.16V68.384H1032.26V71.264C1033.55 68.96 1036.58 67.712 1039.17 67.712C1042.39 67.712 1044.98 69.104 1046.18 71.648C1048.05 68.768 1050.55 67.712 1053.67 67.712C1058.03 67.712 1062.21 70.352 1062.21 76.688V92H1056.02V77.984C1056.02 75.44 1054.77 73.52 1051.84 73.52C1049.11 73.52 1047.47 75.632 1047.47 78.176V92H1041.14V77.984C1041.14 75.44 1039.84 73.52 1036.96 73.52C1034.18 73.52 1032.55 75.584 1032.55 78.176V92ZM1073.53 77.504H1084.09C1083.99 75.152 1082.46 72.848 1078.81 72.848C1075.5 72.848 1073.67 75.344 1073.53 77.504ZM1084.71 83.648L1090.04 85.232C1088.84 89.312 1085.1 92.72 1079.29 92.72C1072.81 92.72 1067.1 88.064 1067.1 80.096C1067.1 72.56 1072.67 67.664 1078.71 67.664C1086.01 67.664 1090.38 72.32 1090.38 79.904C1090.38 80.816 1090.28 81.776 1090.28 81.872H1073.39C1073.53 84.992 1076.17 87.248 1079.34 87.248C1082.31 87.248 1083.95 85.76 1084.71 83.648ZM1103.61 61.328V68.384H1108.36V74.048H1103.61V83.936C1103.61 86 1104.57 86.672 1106.39 86.672C1107.16 86.672 1108.02 86.576 1108.36 86.48V91.76C1107.78 92 1106.63 92.336 1104.76 92.336C1100.15 92.336 1097.27 89.6 1097.27 85.04V74.048H1093V68.384H1094.2C1096.7 68.384 1097.85 66.752 1097.85 64.64V61.328H1103.61ZM1119.87 78.128V92H1113.49V57.248H1119.87V70.352C1121.41 68.528 1124 67.76 1126.26 67.76C1132.26 67.76 1135.04 71.936 1135.04 77.12V92H1128.66V78.224C1128.66 75.584 1127.36 73.52 1124.29 73.52C1121.6 73.52 1120.02 75.536 1119.87 78.128ZM1152.28 86.912C1155.4 86.912 1158.28 84.656 1158.28 80.192C1158.28 75.728 1155.4 73.472 1152.28 73.472C1149.16 73.472 1146.28 75.728 1146.28 80.192C1146.28 84.608 1149.16 86.912 1152.28 86.912ZM1152.28 67.664C1159.33 67.664 1164.66 72.896 1164.66 80.192C1164.66 87.44 1159.33 92.72 1152.28 92.72C1145.22 92.72 1139.89 87.44 1139.89 80.192C1139.89 72.896 1145.22 67.664 1152.28 67.664ZM1192.59 57.248V87.728C1192.59 89.312 1192.68 91.04 1192.78 92H1186.68C1186.59 91.52 1186.44 90.368 1186.44 89.264C1185.39 91.136 1182.99 92.576 1179.82 92.576C1173.1 92.576 1168.3 87.296 1168.3 80.144C1168.3 73.232 1172.96 67.808 1179.63 67.808C1183.71 67.808 1185.63 69.488 1186.3 70.736V57.248H1192.59ZM1174.73 80.144C1174.73 84.368 1177.23 86.864 1180.59 86.864C1183.85 86.864 1186.4 84.368 1186.4 80.096C1186.4 75.872 1183.85 73.52 1180.59 73.52C1177.32 73.52 1174.73 75.92 1174.73 80.144ZM1197.55 85.424L1203.02 84.224C1203.16 86.096 1204.56 87.824 1207.34 87.824C1209.45 87.824 1210.46 86.72 1210.46 85.472C1210.46 84.416 1209.74 83.552 1207.92 83.168L1204.8 82.448C1200.24 81.44 1198.17 78.704 1198.17 75.392C1198.17 71.168 1201.92 67.664 1207 67.664C1213.72 67.664 1215.98 71.936 1216.27 74.48L1210.94 75.68C1210.75 74.288 1209.74 72.512 1207.05 72.512C1205.37 72.512 1204.03 73.52 1204.03 74.864C1204.03 76.016 1204.89 76.736 1206.19 76.976L1209.55 77.696C1214.2 78.656 1216.56 81.488 1216.56 84.944C1216.56 88.784 1213.58 92.72 1207.39 92.72C1200.28 92.72 1197.84 88.112 1197.55 85.424ZM1240.39 101.312H1233.63L1239.19 89.024L1229.16 68.384H1236.31L1242.6 82.208L1248.41 68.384H1255.23L1240.39 101.312ZM1269 86.912C1272.12 86.912 1275 84.656 1275 80.192C1275 75.728 1272.12 73.472 1269 73.472C1265.88 73.472 1263 75.728 1263 80.192C1263 84.608 1265.88 86.912 1269 86.912ZM1269 67.664C1276.05 67.664 1281.38 72.896 1281.38 80.192C1281.38 87.44 1276.05 92.72 1269 92.72C1261.94 92.72 1256.61 87.44 1256.61 80.192C1256.61 72.896 1261.94 67.664 1269 67.664ZM1301.92 92C1301.82 91.52 1301.72 90.416 1301.72 89.456C1300.43 91.664 1297.69 92.624 1295.2 92.624C1289.48 92.624 1286.22 88.448 1286.22 83.312V68.384H1292.6V82.016C1292.6 84.656 1293.95 86.768 1296.92 86.768C1299.76 86.768 1301.39 84.848 1301.39 82.112V68.384H1307.77V87.728C1307.77 89.552 1307.92 91.184 1308.01 92H1301.92ZM1332.08 101.12H1325.69V68.384H1331.89V71.264C1332.94 69.44 1335.58 67.856 1339.13 67.856C1346.05 67.856 1350.03 73.136 1350.03 80.144C1350.03 87.296 1345.57 92.576 1338.89 92.576C1335.63 92.576 1333.23 91.28 1332.08 89.696V101.12ZM1343.74 80.192C1343.74 76.016 1341.15 73.568 1337.89 73.568C1334.62 73.568 1331.98 76.016 1331.98 80.192C1331.98 84.368 1334.62 86.864 1337.89 86.864C1341.15 86.864 1343.74 84.416 1343.74 80.192ZM1369.58 68.288V74.72C1368.86 74.576 1368.23 74.528 1367.66 74.528C1364.39 74.528 1361.56 76.112 1361.56 81.2V92H1355.18V68.384H1361.37V71.888C1362.81 68.768 1366.07 68.192 1368.09 68.192C1368.62 68.192 1369.1 68.24 1369.58 68.288ZM1378.55 77.504H1389.11C1389.01 75.152 1387.47 72.848 1383.83 72.848C1380.51 72.848 1378.69 75.344 1378.55 77.504ZM1389.73 83.648L1395.06 85.232C1393.86 89.312 1390.11 92.72 1384.31 92.72C1377.83 92.72 1372.11 88.064 1372.11 80.096C1372.11 72.56 1377.68 67.664 1383.73 67.664C1391.03 67.664 1395.39 72.32 1395.39 79.904C1395.39 80.816 1395.3 81.776 1395.3 81.872H1378.4C1378.55 84.992 1381.19 87.248 1384.35 87.248C1387.33 87.248 1388.96 85.76 1389.73 83.648ZM1412.08 62.528C1410.64 62.528 1408.77 63.152 1408.77 65.792V68.384H1414.1V73.856H1408.77V92H1402.34V73.856H1398.4V68.384H1402.34V65.696C1402.34 60.368 1405.7 56.912 1410.93 56.912C1412.27 56.912 1413.57 57.152 1414.1 57.392V62.768C1413.76 62.672 1413.14 62.528 1412.08 62.528ZM1422.94 77.504H1433.5C1433.4 75.152 1431.86 72.848 1428.22 72.848C1424.9 72.848 1423.08 75.344 1422.94 77.504ZM1434.12 83.648L1439.45 85.232C1438.25 89.312 1434.5 92.72 1428.7 92.72C1422.22 92.72 1416.5 88.064 1416.5 80.096C1416.5 72.56 1422.07 67.664 1428.12 67.664C1435.42 67.664 1439.78 72.32 1439.78 79.904C1439.78 80.816 1439.69 81.776 1439.69 81.872H1422.79C1422.94 84.992 1425.58 87.248 1428.74 87.248C1431.72 87.248 1433.35 85.76 1434.12 83.648ZM1459.34 68.288V74.72C1458.62 74.576 1458 74.528 1457.42 74.528C1454.16 74.528 1451.33 76.112 1451.33 81.2V92H1444.94V68.384H1451.14V71.888C1452.58 68.768 1455.84 68.192 1457.86 68.192C1458.38 68.192 1458.86 68.24 1459.34 68.288ZM1481.47 61.328V68.384H1486.22V74.048H1481.47V83.936C1481.47 86 1482.43 86.672 1484.25 86.672C1485.02 86.672 1485.88 86.576 1486.22 86.48V91.76C1485.64 92 1484.49 92.336 1482.62 92.336C1478.01 92.336 1475.13 89.6 1475.13 85.04V74.048H1470.86V68.384H1472.06C1474.55 68.384 1475.71 66.752 1475.71 64.64V61.328H1481.47ZM1497.73 78.128V92H1491.35V57.248H1497.73V70.352C1499.27 68.528 1501.86 67.76 1504.12 67.76C1510.12 67.76 1512.9 71.936 1512.9 77.12V92H1506.52V78.224C1506.52 75.584 1505.22 73.52 1502.15 73.52C1499.46 73.52 1497.88 75.536 1497.73 78.128ZM1524.23 77.504H1534.79C1534.7 75.152 1533.16 72.848 1529.51 72.848C1526.2 72.848 1524.38 75.344 1524.23 77.504ZM1535.42 83.648L1540.75 85.232C1539.55 89.312 1535.8 92.72 1529.99 92.72C1523.51 92.72 1517.8 88.064 1517.8 80.096C1517.8 72.56 1523.37 67.664 1529.42 67.664C1536.71 67.664 1541.08 72.32 1541.08 79.904C1541.08 80.816 1540.99 81.776 1540.99 81.872H1524.09C1524.23 84.992 1526.87 87.248 1530.04 87.248C1533.02 87.248 1534.65 85.76 1535.42 83.648ZM1564.02 92H1557.63V68.384H1563.73V71.264C1565.02 68.96 1568.05 67.712 1570.64 67.712C1573.86 67.712 1576.45 69.104 1577.65 71.648C1579.52 68.768 1582.02 67.712 1585.14 67.712C1589.5 67.712 1593.68 70.352 1593.68 76.688V92H1587.49V77.984C1587.49 75.44 1586.24 73.52 1583.31 73.52C1580.58 73.52 1578.94 75.632 1578.94 78.176V92H1572.61V77.984C1572.61 75.44 1571.31 73.52 1568.43 73.52C1565.65 73.52 1564.02 75.584 1564.02 78.176V92ZM1610.9 86.912C1614.02 86.912 1616.9 84.656 1616.9 80.192C1616.9 75.728 1614.02 73.472 1610.9 73.472C1607.78 73.472 1604.9 75.728 1604.9 80.192C1604.9 84.608 1607.78 86.912 1610.9 86.912ZM1610.9 67.664C1617.96 67.664 1623.29 72.896 1623.29 80.192C1623.29 87.44 1617.96 92.72 1610.9 92.72C1603.85 92.72 1598.52 87.44 1598.52 80.192C1598.52 72.896 1603.85 67.664 1610.9 67.664ZM1626.78 85.424L1632.25 84.224C1632.4 86.096 1633.79 87.824 1636.57 87.824C1638.69 87.824 1639.69 86.72 1639.69 85.472C1639.69 84.416 1638.97 83.552 1637.15 83.168L1634.03 82.448C1629.47 81.44 1627.41 78.704 1627.41 75.392C1627.41 71.168 1631.15 67.664 1636.24 67.664C1642.96 67.664 1645.21 71.936 1645.5 74.48L1640.17 75.68C1639.98 74.288 1638.97 72.512 1636.29 72.512C1634.61 72.512 1633.26 73.52 1633.26 74.864C1633.26 76.016 1634.13 76.736 1635.42 76.976L1638.78 77.696C1643.44 78.656 1645.79 81.488 1645.79 84.944C1645.79 88.784 1642.81 92.72 1636.62 92.72C1629.52 92.72 1627.07 88.112 1626.78 85.424ZM1659.26 61.328V68.384H1664.02V74.048H1659.26V83.936C1659.26 86 1660.22 86.672 1662.05 86.672C1662.82 86.672 1663.68 86.576 1664.02 86.48V91.76C1663.44 92 1662.29 92.336 1660.42 92.336C1655.81 92.336 1652.93 89.6 1652.93 85.04V74.048H1648.66V68.384H1649.86C1652.35 68.384 1653.5 66.752 1653.5 64.64V61.328H1659.26ZM1668.09 87.968C1668.09 85.568 1670.06 83.6 1672.46 83.6C1674.91 83.6 1676.87 85.568 1676.87 87.968C1676.87 90.368 1674.91 92.336 1672.46 92.336C1670.06 92.336 1668.09 90.368 1668.09 87.968Z" fill="black"/>
<path d="M618 497.5C618 643.579 499.579 762 353.5 762C207.421 762 89 643.579 89 497.5C89 351.421 207.421 233 353.5 233C499.579 233 618 351.421 618 497.5Z" fill="#C800A1"/>
<path d="M618 497.5C618 543.867 605.811 589.42 582.655 629.591C559.499 669.763 526.19 703.141 486.067 726.38C445.944 749.62 400.417 761.903 354.05 761.999C307.683 762.096 262.105 750.002 221.885 726.929C181.666 703.857 148.218 670.617 124.896 630.543C101.573 590.468 89.1951 544.967 89.0023 498.6C88.8095 452.233 100.809 406.63 123.798 366.363C146.786 326.095 179.956 292.579 219.982 269.173L353.5 497.5H618Z" fill="#1226AA"/>
<path d="M581.286 286H576.446V273.88H563.126V286H558.326V257.64H563.126V269.36H576.446V257.64H581.286V286ZM593.692 293.88H588.732L593.412 283.68L585.092 266.52H590.332L595.932 278.84L601.172 266.52H606.092L593.692 293.88ZM613.923 286H609.403V257.04H613.963V268.92C614.843 267.4 617.083 266 620.083 266C625.923 266 629.083 270.44 629.083 276.16C629.083 282.04 625.603 286.48 619.923 286.48C617.163 286.48 615.043 285.28 613.923 283.4V286ZM624.403 276.2C624.403 272.32 622.243 270.12 619.163 270.12C616.203 270.12 613.923 272.32 613.923 276.2C613.923 280.04 616.203 282.36 619.163 282.36C622.203 282.36 624.403 280.04 624.403 276.2ZM645.061 266.4V271.12C644.541 271.04 644.021 271 643.541 271C639.941 271 638.301 273.08 638.301 276.72V286H633.661V266.52H638.181V269.64C639.101 267.52 641.261 266.28 643.821 266.28C644.381 266.28 644.861 266.36 645.061 266.4ZM653.339 286H648.739V266.52H653.339V286ZM648.019 259.68C648.019 258 649.379 256.64 651.019 256.64C652.699 256.64 654.059 258 654.059 259.68C654.059 261.36 652.699 262.68 651.019 262.68C649.379 262.68 648.019 261.36 648.019 259.68ZM662.491 276.2C662.491 279.92 664.571 282.4 667.731 282.4C670.771 282.4 672.891 279.88 672.891 276.16C672.891 272.44 670.811 270.12 667.771 270.12C664.731 270.12 662.491 272.48 662.491 276.2ZM677.371 257.04V282.44C677.371 284.2 677.531 285.68 677.571 286H673.131C673.051 285.56 672.931 284.28 672.931 283.48C672.011 285.12 669.971 286.48 667.211 286.48C661.611 286.48 657.851 282.08 657.851 276.2C657.851 270.6 661.651 266 667.131 266C670.531 266 672.251 267.56 672.851 268.8V257.04H677.371Z" fill="black"/>
<path d="M30.5142 776H25.6342V747.64H30.5142V776ZM41.5864 764.76V776H36.9464V756.52H41.4664V759.12C42.7464 756.88 45.0664 755.96 47.2264 755.96C51.9864 755.96 54.2664 759.4 54.2664 763.68V776H49.6264V764.48C49.6264 762.08 48.5464 760.16 45.6264 760.16C42.9864 760.16 41.5864 762.2 41.5864 764.76ZM70.797 766.36H59.517V762.24H70.797V766.36ZM80.8433 783.6H76.2433V756.52H80.7233V759.16C81.6833 757.48 83.9233 756.08 86.9233 756.08C92.6833 756.08 95.9233 760.48 95.9233 766.24C95.9233 772.08 92.3633 776.48 86.7633 776.48C83.9633 776.48 81.8433 775.28 80.8433 773.8V783.6ZM91.2833 766.24C91.2833 762.6 89.1633 760.2 86.0433 760.2C83.0033 760.2 80.8033 762.6 80.8033 766.24C80.8033 769.96 83.0033 772.36 86.0433 772.36C89.1233 772.36 91.2833 769.96 91.2833 766.24ZM104.021 764.12H113.581C113.501 761.84 111.981 759.8 108.781 759.8C105.861 759.8 104.181 762.04 104.021 764.12ZM114.101 769.2L118.021 770.44C116.981 773.84 113.901 776.6 109.221 776.6C103.941 776.6 99.2611 772.76 99.2611 766.16C99.2611 760 103.821 755.92 108.741 755.92C114.741 755.92 118.261 759.88 118.261 766.04C118.261 766.8 118.181 767.44 118.141 767.52H103.901C104.021 770.48 106.341 772.6 109.221 772.6C112.021 772.6 113.461 771.12 114.101 769.2ZM134.167 756.4V761.12C133.647 761.04 133.127 761 132.647 761C129.047 761 127.407 763.08 127.407 766.72V776H122.767V756.52H127.287V759.64C128.207 757.52 130.367 756.28 132.927 756.28C133.487 756.28 133.967 756.36 134.167 756.4ZM136.485 770.72L140.525 769.6C140.685 771.36 142.005 772.92 144.485 772.92C146.405 772.92 147.405 771.88 147.405 770.68C147.405 769.64 146.685 768.84 145.125 768.52L142.245 767.88C138.805 767.12 137.005 764.88 137.005 762.2C137.005 758.8 140.125 755.92 144.165 755.92C149.605 755.92 151.365 759.44 151.685 761.36L147.765 762.48C147.605 761.36 146.765 759.56 144.165 759.56C142.525 759.56 141.365 760.6 141.365 761.8C141.365 762.84 142.125 763.6 143.325 763.84L146.285 764.44C149.965 765.24 151.885 767.48 151.885 770.36C151.885 773.32 149.485 776.6 144.525 776.6C138.885 776.6 136.725 772.92 136.485 770.72ZM165.279 772.44C168.159 772.44 170.719 770.32 170.719 766.24C170.719 762.2 168.159 760.12 165.279 760.12C162.439 760.12 159.839 762.2 159.839 766.24C159.839 770.28 162.439 772.44 165.279 772.44ZM165.279 755.92C171.119 755.92 175.399 760.28 175.399 766.24C175.399 772.24 171.119 776.6 165.279 776.6C159.479 776.6 155.199 772.24 155.199 766.24C155.199 760.28 159.479 755.92 165.279 755.92ZM184.555 764.76V776H179.915V756.52H184.435V759.12C185.715 756.88 188.035 755.96 190.195 755.96C194.955 755.96 197.235 759.4 197.235 763.68V776H192.595V764.48C192.595 762.08 191.515 760.16 188.595 760.16C185.955 760.16 184.555 762.2 184.555 764.76Z" fill="black"/>
<path d="M298.131 614.76L296.771 618.68C295.811 618.16 294.451 617.64 292.331 617.64C287.451 617.64 283.931 620.88 283.491 625.92C284.851 623.84 287.331 622.84 290.091 622.84C295.251 622.84 298.891 626.28 298.891 631.6C298.891 637 294.491 640.6 289.051 640.6C282.451 640.6 278.691 635.2 278.691 628.56C278.691 619.16 284.571 613.48 292.611 613.48C295.011 613.48 297.011 614.04 298.131 614.76ZM284.011 631.68C284.011 634.64 286.411 636.52 289.051 636.52C291.771 636.52 294.091 634.68 294.091 631.68C294.091 628.64 291.771 626.84 289.051 626.84C286.331 626.84 284.011 628.64 284.011 631.68ZM321.724 614.76L320.364 618.68C319.404 618.16 318.044 617.64 315.924 617.64C311.044 617.64 307.524 620.88 307.084 625.92C308.444 623.84 310.924 622.84 313.684 622.84C318.844 622.84 322.484 626.28 322.484 631.6C322.484 637 318.084 640.6 312.644 640.6C306.044 640.6 302.284 635.2 302.284 628.56C302.284 619.16 308.164 613.48 316.204 613.48C318.604 613.48 320.604 614.04 321.724 614.76ZM307.604 631.68C307.604 634.64 310.004 636.52 312.644 636.52C315.364 636.52 317.684 634.68 317.684 631.68C317.684 628.64 315.364 626.84 312.644 626.84C309.924 626.84 307.604 628.64 307.604 631.68ZM326.118 637C326.118 635.2 327.558 633.72 329.358 633.72C331.158 633.72 332.638 635.2 332.638 637C332.638 638.8 331.158 640.24 329.358 640.24C327.558 640.24 326.118 638.8 326.118 637ZM354.01 614.08V618.28C351.85 620.08 344.53 626.64 343.37 640H338.41C339.53 625.52 348.57 618.28 348.57 618.28H334.65V614.08H354.01ZM384.942 611.96L364.742 641.16L361.262 639.48L381.422 610.32L384.942 611.96ZM362.622 626.28C358.702 626.28 355.942 623.28 355.942 618.96C355.942 614.48 358.702 611.4 362.622 611.4C366.582 611.4 369.342 614.4 369.342 618.72C369.342 623.16 366.582 626.28 362.622 626.28ZM362.622 623.04C364.502 623.04 365.822 621.32 365.822 618.8C365.822 616.32 364.542 614.6 362.662 614.6C360.782 614.6 359.462 616.32 359.462 618.84C359.462 621.32 360.782 623.04 362.622 623.04ZM383.222 640.6C379.262 640.6 376.502 637.56 376.502 633.24C376.502 628.76 379.262 625.68 383.222 625.72C387.142 625.76 389.902 628.76 389.902 633.04C389.902 637.48 387.142 640.6 383.222 640.6ZM383.222 637.36C385.102 637.36 386.422 635.64 386.422 633.12C386.422 630.64 385.102 628.92 383.262 628.92C381.342 628.92 380.022 630.64 380.022 633.16C380.022 635.64 381.342 637.36 383.222 637.36Z" fill="white"/>
<path d="M376.27 369.24L374.07 365.68L381.23 359.28H369.43V355.08H387.43V359.08L380.39 365.24C384.27 365.32 388.15 368.12 388.15 373.12C388.15 377.56 384.59 381.6 378.43 381.6C372.43 381.6 368.87 377.72 368.55 373.4L373.23 372.44C373.35 375.44 375.51 377.48 378.39 377.48C381.55 377.48 383.31 375.44 383.31 373.08C383.31 370.08 380.91 368.8 378.71 368.8C377.47 368.8 376.67 369.04 376.27 369.24ZM399.239 369.24L397.039 365.68L404.199 359.28H392.399V355.08H410.399V359.08L403.359 365.24C407.239 365.32 411.119 368.12 411.119 373.12C411.119 377.56 407.559 381.6 401.399 381.6C395.399 381.6 391.839 377.72 391.519 373.4L396.199 372.44C396.319 375.44 398.479 377.48 401.359 377.48C404.519 377.48 406.279 375.44 406.279 373.08C406.279 370.08 403.879 368.8 401.679 368.8C400.439 368.8 399.639 369.04 399.239 369.24ZM415.048 378C415.048 376.2 416.488 374.72 418.288 374.72C420.088 374.72 421.568 376.2 421.568 378C421.568 379.8 420.088 381.24 418.288 381.24C416.488 381.24 415.048 379.8 415.048 378ZM432.794 369.24L430.594 365.68L437.754 359.28H425.954V355.08H443.954V359.08L436.914 365.24C440.794 365.32 444.674 368.12 444.674 373.12C444.674 377.56 441.114 381.6 434.954 381.6C428.954 381.6 425.394 377.72 425.074 373.4L429.754 372.44C429.874 375.44 432.034 377.48 434.914 377.48C438.074 377.48 439.834 375.44 439.834 373.08C439.834 370.08 437.434 368.8 435.234 368.8C433.994 368.8 433.194 369.04 432.794 369.24ZM476.763 352.96L456.562 382.16L453.083 380.48L473.243 351.32L476.763 352.96ZM454.443 367.28C450.523 367.28 447.763 364.28 447.763 359.96C447.763 355.48 450.523 352.4 454.443 352.4C458.403 352.4 461.163 355.4 461.163 359.72C461.163 364.16 458.403 367.28 454.443 367.28ZM454.443 364.04C456.323 364.04 457.643 362.32 457.643 359.8C457.643 357.32 456.363 355.6 454.483 355.6C452.603 355.6 451.283 357.32 451.283 359.84C451.283 362.32 452.603 364.04 454.443 364.04ZM475.043 381.6C471.083 381.6 468.323 378.56 468.323 374.24C468.323 369.76 471.083 366.68 475.043 366.72C478.963 366.76 481.723 369.76 481.723 374.04C481.723 378.48 478.963 381.6 475.043 381.6ZM475.043 378.36C476.923 378.36 478.243 376.64 478.243 374.12C478.243 371.64 476.923 369.92 475.083 369.92C473.163 369.92 471.843 371.64 471.843 374.16C471.843 376.64 473.163 378.36 475.043 378.36Z" fill="white"/>
<path d="M1471.39 808H1468.99V793.82H1477.81V796.08H1471.39V800.06H1477.15V802.28H1471.39V808ZM1478.87 805.36C1478.87 803.62 1480.15 802.66 1481.81 802.42L1484.31 802.04C1484.87 801.96 1485.03 801.68 1485.03 801.34C1485.03 800.52 1484.47 799.86 1483.19 799.86C1481.97 799.86 1481.29 800.64 1481.19 801.62L1479.07 801.14C1479.25 799.46 1480.77 797.96 1483.17 797.96C1486.17 797.96 1487.31 799.66 1487.31 801.6V806.44C1487.31 807.32 1487.41 807.9 1487.43 808H1485.27C1485.25 807.94 1485.17 807.54 1485.17 806.76C1484.71 807.5 1483.75 808.3 1482.17 808.3C1480.13 808.3 1478.87 806.9 1478.87 805.36ZM1482.61 806.48C1483.91 806.48 1485.03 805.86 1485.03 803.96V803.52L1482.49 803.9C1481.77 804.02 1481.19 804.42 1481.19 805.22C1481.19 805.88 1481.69 806.48 1482.61 806.48ZM1494.5 800.1C1493.08 800.1 1491.82 801.16 1491.82 803.12C1491.82 805.08 1493.08 806.18 1494.54 806.18C1496.06 806.18 1496.76 805.12 1496.98 804.38L1499.02 805.12C1498.56 806.64 1497.1 808.3 1494.54 808.3C1491.68 808.3 1489.5 806.08 1489.5 803.12C1489.5 800.12 1491.68 797.96 1494.48 797.96C1497.1 797.96 1498.54 799.6 1498.94 801.16L1496.86 801.92C1496.64 801.06 1495.98 800.1 1494.5 800.1ZM1502.85 802.06H1507.63C1507.59 800.92 1506.83 799.9 1505.23 799.9C1503.77 799.9 1502.93 801.02 1502.85 802.06ZM1507.89 804.6L1509.85 805.22C1509.33 806.92 1507.79 808.3 1505.45 808.3C1502.81 808.3 1500.47 806.38 1500.47 803.08C1500.47 800 1502.75 797.96 1505.21 797.96C1508.21 797.96 1509.97 799.94 1509.97 803.02C1509.97 803.4 1509.93 803.72 1509.91 803.76H1502.79C1502.85 805.24 1504.01 806.3 1505.45 806.3C1506.85 806.3 1507.57 805.56 1507.89 804.6ZM1461.59 816.28V819.26H1463.61V821.32H1461.59V825.84C1461.59 826.7 1461.97 827.06 1462.83 827.06C1463.15 827.06 1463.53 827 1463.63 826.98V828.9C1463.49 828.96 1463.05 829.12 1462.21 829.12C1460.41 829.12 1459.29 828.04 1459.29 826.22V821.32H1457.49V819.26H1457.99C1459.03 819.26 1459.49 818.6 1459.49 817.74V816.28H1461.59ZM1470.17 827.22C1471.61 827.22 1472.89 826.16 1472.89 824.12C1472.89 822.1 1471.61 821.06 1470.17 821.06C1468.75 821.06 1467.45 822.1 1467.45 824.12C1467.45 826.14 1468.75 827.22 1470.17 827.22ZM1470.17 818.96C1473.09 818.96 1475.23 821.14 1475.23 824.12C1475.23 827.12 1473.09 829.3 1470.17 829.3C1467.27 829.3 1465.13 827.12 1465.13 824.12C1465.13 821.14 1467.27 818.96 1470.17 818.96ZM1486.93 816.5C1486.31 816.5 1485.49 816.78 1485.49 817.98V819.26H1487.75V821.28H1485.49V829H1483.15V821.28H1481.45V819.26H1483.15V817.92C1483.15 815.74 1484.55 814.42 1486.55 814.42C1487.13 814.42 1487.61 814.54 1487.77 814.62V816.6C1487.63 816.56 1487.37 816.5 1486.93 816.5ZM1489 826.36C1489 824.62 1490.28 823.66 1491.94 823.42L1494.44 823.04C1495 822.96 1495.16 822.68 1495.16 822.34C1495.16 821.52 1494.6 820.86 1493.32 820.86C1492.1 820.86 1491.42 821.64 1491.32 822.62L1489.2 822.14C1489.38 820.46 1490.9 818.96 1493.3 818.96C1496.3 818.96 1497.44 820.66 1497.44 822.6V827.44C1497.44 828.32 1497.54 828.9 1497.56 829H1495.4C1495.38 828.94 1495.3 828.54 1495.3 827.76C1494.84 828.5 1493.88 829.3 1492.3 829.3C1490.26 829.3 1489 827.9 1489 826.36ZM1492.74 827.48C1494.04 827.48 1495.16 826.86 1495.16 824.96V824.52L1492.62 824.9C1491.9 825.02 1491.32 825.42 1491.32 826.22C1491.32 826.88 1491.82 827.48 1492.74 827.48ZM1504.62 821.1C1503.2 821.1 1501.94 822.16 1501.94 824.12C1501.94 826.08 1503.2 827.18 1504.66 827.18C1506.18 827.18 1506.88 826.12 1507.1 825.38L1509.14 826.12C1508.68 827.64 1507.22 829.3 1504.66 829.3C1501.8 829.3 1499.62 827.08 1499.62 824.12C1499.62 821.12 1501.8 818.96 1504.6 818.96C1507.22 818.96 1508.66 820.6 1509.06 822.16L1506.98 822.92C1506.76 822.06 1506.1 821.1 1504.62 821.1ZM1512.98 823.06H1517.76C1517.72 821.92 1516.96 820.9 1515.36 820.9C1513.9 820.9 1513.06 822.02 1512.98 823.06ZM1518.02 825.6L1519.98 826.22C1519.46 827.92 1517.92 829.3 1515.58 829.3C1512.94 829.3 1510.6 827.38 1510.6 824.08C1510.6 821 1512.88 818.96 1515.34 818.96C1518.34 818.96 1520.1 820.94 1520.1 824.02C1520.1 824.4 1520.06 824.72 1520.04 824.76H1512.92C1512.98 826.24 1514.14 827.3 1515.58 827.3C1516.98 827.3 1517.7 826.56 1518.02 825.6Z" fill="black"/>
<path d="M1046.44 808H1044.06V797.56L1039.64 808H1037.56L1033.18 797.6V808H1030.84V793.82H1034.04L1038.64 804.64L1043.18 793.82H1046.44V808ZM1051.96 808H1049.66V798.26H1051.96V808ZM1049.3 794.84C1049.3 794 1049.98 793.32 1050.8 793.32C1051.64 793.32 1052.32 794 1052.32 794.84C1052.32 795.68 1051.64 796.34 1050.8 796.34C1049.98 796.34 1049.3 795.68 1049.3 794.84ZM1059.21 800.1C1057.79 800.1 1056.53 801.16 1056.53 803.12C1056.53 805.08 1057.79 806.18 1059.25 806.18C1060.77 806.18 1061.47 805.12 1061.69 804.38L1063.73 805.12C1063.27 806.64 1061.81 808.3 1059.25 808.3C1056.39 808.3 1054.21 806.08 1054.21 803.12C1054.21 800.12 1056.39 797.96 1059.19 797.96C1061.81 797.96 1063.25 799.6 1063.65 801.16L1061.57 801.92C1061.35 801.06 1060.69 800.1 1059.21 800.1ZM1071.51 798.2V800.56C1071.25 800.52 1070.99 800.5 1070.75 800.5C1068.95 800.5 1068.13 801.54 1068.13 803.36V808H1065.81V798.26H1068.07V799.82C1068.53 798.76 1069.61 798.14 1070.89 798.14C1071.17 798.14 1071.41 798.18 1071.51 798.2ZM1077.63 806.22C1079.07 806.22 1080.35 805.16 1080.35 803.12C1080.35 801.1 1079.07 800.06 1077.63 800.06C1076.21 800.06 1074.91 801.1 1074.91 803.12C1074.91 805.14 1076.21 806.22 1077.63 806.22ZM1077.63 797.96C1080.55 797.96 1082.69 800.14 1082.69 803.12C1082.69 806.12 1080.55 808.3 1077.63 808.3C1074.73 808.3 1072.59 806.12 1072.59 803.12C1072.59 800.14 1074.73 797.96 1077.63 797.96ZM1084.27 805.36L1086.29 804.8C1086.37 805.68 1087.03 806.46 1088.27 806.46C1089.23 806.46 1089.73 805.94 1089.73 805.34C1089.73 804.82 1089.37 804.42 1088.59 804.26L1087.15 803.94C1085.43 803.56 1084.53 802.44 1084.53 801.1C1084.53 799.4 1086.09 797.96 1088.11 797.96C1090.83 797.96 1091.71 799.72 1091.87 800.68L1089.91 801.24C1089.83 800.68 1089.41 799.78 1088.11 799.78C1087.29 799.78 1086.71 800.3 1086.71 800.9C1086.71 801.42 1087.09 801.8 1087.69 801.92L1089.17 802.22C1091.01 802.62 1091.97 803.74 1091.97 805.18C1091.97 806.66 1090.77 808.3 1088.29 808.3C1085.47 808.3 1084.39 806.46 1084.27 805.36ZM1098.67 806.22C1100.11 806.22 1101.39 805.16 1101.39 803.12C1101.39 801.1 1100.11 800.06 1098.67 800.06C1097.25 800.06 1095.95 801.1 1095.95 803.12C1095.95 805.14 1097.25 806.22 1098.67 806.22ZM1098.67 797.96C1101.59 797.96 1103.73 800.14 1103.73 803.12C1103.73 806.12 1101.59 808.3 1098.67 808.3C1095.77 808.3 1093.63 806.12 1093.63 803.12C1093.63 800.14 1095.77 797.96 1098.67 797.96ZM1110.41 795.5C1109.79 795.5 1108.97 795.78 1108.97 796.98V798.26H1111.23V800.28H1108.97V808H1106.63V800.28H1104.93V798.26H1106.63V796.92C1106.63 794.74 1108.03 793.42 1110.03 793.42C1110.61 793.42 1111.09 793.54 1111.25 793.62V795.6C1111.11 795.56 1110.85 795.5 1110.41 795.5ZM1116.14 795.28V798.26H1118.16V800.32H1116.14V804.84C1116.14 805.7 1116.52 806.06 1117.38 806.06C1117.7 806.06 1118.08 806 1118.18 805.98V807.9C1118.04 807.96 1117.6 808.12 1116.76 808.12C1114.96 808.12 1113.84 807.04 1113.84 805.22V800.32H1112.04V798.26H1112.54C1113.58 798.26 1114.04 797.6 1114.04 796.74V795.28H1116.14ZM1056.73 817.08H1052.11V829H1049.71V817.08H1045.11V814.82H1056.73V817.08ZM1057.95 823.06H1062.73C1062.69 821.92 1061.93 820.9 1060.33 820.9C1058.87 820.9 1058.03 822.02 1057.95 823.06ZM1062.99 825.6L1064.95 826.22C1064.43 827.92 1062.89 829.3 1060.55 829.3C1057.91 829.3 1055.57 827.38 1055.57 824.08C1055.57 821 1057.85 818.96 1060.31 818.96C1063.31 818.96 1065.07 820.94 1065.07 824.02C1065.07 824.4 1065.03 824.72 1065.01 824.76H1057.89C1057.95 826.24 1059.11 827.3 1060.55 827.3C1061.95 827.3 1062.67 826.56 1062.99 825.6ZM1066.72 826.36C1066.72 824.62 1068 823.66 1069.66 823.42L1072.16 823.04C1072.72 822.96 1072.88 822.68 1072.88 822.34C1072.88 821.52 1072.32 820.86 1071.04 820.86C1069.82 820.86 1069.14 821.64 1069.04 822.62L1066.92 822.14C1067.1 820.46 1068.62 818.96 1071.02 818.96C1074.02 818.96 1075.16 820.66 1075.16 822.6V827.44C1075.16 828.32 1075.26 828.9 1075.28 829H1073.12C1073.1 828.94 1073.02 828.54 1073.02 827.76C1072.56 828.5 1071.6 829.3 1070.02 829.3C1067.98 829.3 1066.72 827.9 1066.72 826.36ZM1070.46 827.48C1071.76 827.48 1072.88 826.86 1072.88 824.96V824.52L1070.34 824.9C1069.62 825.02 1069.04 825.42 1069.04 826.22C1069.04 826.88 1069.54 827.48 1070.46 827.48ZM1080.27 829H1077.97V819.26H1080.19V820.5C1080.75 819.5 1081.97 818.98 1083.07 818.98C1084.35 818.98 1085.47 819.56 1085.99 820.7C1086.75 819.42 1087.89 818.98 1089.15 818.98C1090.91 818.98 1092.59 820.1 1092.59 822.68V829H1090.35V823.06C1090.35 821.92 1089.77 821.06 1088.47 821.06C1087.25 821.06 1086.45 822.02 1086.45 823.22V829H1084.17V823.06C1084.17 821.94 1083.61 821.06 1082.29 821.06C1081.05 821.06 1080.27 821.98 1080.27 823.22V829ZM1094.69 826.36L1096.71 825.8C1096.79 826.68 1097.45 827.46 1098.69 827.46C1099.65 827.46 1100.15 826.94 1100.15 826.34C1100.15 825.82 1099.79 825.42 1099.01 825.26L1097.57 824.94C1095.85 824.56 1094.95 823.44 1094.95 822.1C1094.95 820.4 1096.51 818.96 1098.53 818.96C1101.25 818.96 1102.13 820.72 1102.29 821.68L1100.33 822.24C1100.25 821.68 1099.83 820.78 1098.53 820.78C1097.71 820.78 1097.13 821.3 1097.13 821.9C1097.13 822.42 1097.51 822.8 1098.11 822.92L1099.59 823.22C1101.43 823.62 1102.39 824.74 1102.39 826.18C1102.39 827.66 1101.19 829.3 1098.71 829.3C1095.89 829.3 1094.81 827.46 1094.69 826.36Z" fill="black"/>
<path d="M1256.44 808H1254.06V797.56L1249.64 808H1247.56L1243.18 797.6V808H1240.84V793.82H1244.04L1248.64 804.64L1253.18 793.82H1256.44V808ZM1261.96 808H1259.66V798.26H1261.96V808ZM1259.3 794.84C1259.3 794 1259.98 793.32 1260.8 793.32C1261.64 793.32 1262.32 794 1262.32 794.84C1262.32 795.68 1261.64 796.34 1260.8 796.34C1259.98 796.34 1259.3 795.68 1259.3 794.84ZM1269.21 800.1C1267.79 800.1 1266.53 801.16 1266.53 803.12C1266.53 805.08 1267.79 806.18 1269.25 806.18C1270.77 806.18 1271.47 805.12 1271.69 804.38L1273.73 805.12C1273.27 806.64 1271.81 808.3 1269.25 808.3C1266.39 808.3 1264.21 806.08 1264.21 803.12C1264.21 800.12 1266.39 797.96 1269.19 797.96C1271.81 797.96 1273.25 799.6 1273.65 801.16L1271.57 801.92C1271.35 801.06 1270.69 800.1 1269.21 800.1ZM1281.51 798.2V800.56C1281.25 800.52 1280.99 800.5 1280.75 800.5C1278.95 800.5 1278.13 801.54 1278.13 803.36V808H1275.81V798.26H1278.07V799.82C1278.53 798.76 1279.61 798.14 1280.89 798.14C1281.17 798.14 1281.41 798.18 1281.51 798.2ZM1287.63 806.22C1289.07 806.22 1290.35 805.16 1290.35 803.12C1290.35 801.1 1289.07 800.06 1287.63 800.06C1286.21 800.06 1284.91 801.1 1284.91 803.12C1284.91 805.14 1286.21 806.22 1287.63 806.22ZM1287.63 797.96C1290.55 797.96 1292.69 800.14 1292.69 803.12C1292.69 806.12 1290.55 808.3 1287.63 808.3C1284.73 808.3 1282.59 806.12 1282.59 803.12C1282.59 800.14 1284.73 797.96 1287.63 797.96ZM1294.27 805.36L1296.29 804.8C1296.37 805.68 1297.03 806.46 1298.27 806.46C1299.23 806.46 1299.73 805.94 1299.73 805.34C1299.73 804.82 1299.37 804.42 1298.59 804.26L1297.15 803.94C1295.43 803.56 1294.53 802.44 1294.53 801.1C1294.53 799.4 1296.09 797.96 1298.11 797.96C1300.83 797.96 1301.71 799.72 1301.87 800.68L1299.91 801.24C1299.83 800.68 1299.41 799.78 1298.11 799.78C1297.29 799.78 1296.71 800.3 1296.71 800.9C1296.71 801.42 1297.09 801.8 1297.69 801.92L1299.17 802.22C1301.01 802.62 1301.97 803.74 1301.97 805.18C1301.97 806.66 1300.77 808.3 1298.29 808.3C1295.47 808.3 1294.39 806.46 1294.27 805.36ZM1308.67 806.22C1310.11 806.22 1311.39 805.16 1311.39 803.12C1311.39 801.1 1310.11 800.06 1308.67 800.06C1307.25 800.06 1305.95 801.1 1305.95 803.12C1305.95 805.14 1307.25 806.22 1308.67 806.22ZM1308.67 797.96C1311.59 797.96 1313.73 800.14 1313.73 803.12C1313.73 806.12 1311.59 808.3 1308.67 808.3C1305.77 808.3 1303.63 806.12 1303.63 803.12C1303.63 800.14 1305.77 797.96 1308.67 797.96ZM1320.41 795.5C1319.79 795.5 1318.97 795.78 1318.97 796.98V798.26H1321.23V800.28H1318.97V808H1316.63V800.28H1314.93V798.26H1316.63V796.92C1316.63 794.74 1318.03 793.42 1320.03 793.42C1320.61 793.42 1321.09 793.54 1321.25 793.62V795.6C1321.11 795.56 1320.85 795.5 1320.41 795.5ZM1326.14 795.28V798.26H1328.16V800.32H1326.14V804.84C1326.14 805.7 1326.52 806.06 1327.38 806.06C1327.7 806.06 1328.08 806 1328.18 805.98V807.9C1328.04 807.96 1327.6 808.12 1326.76 808.12C1324.96 808.12 1323.84 807.04 1323.84 805.22V800.32H1322.04V798.26H1322.54C1323.58 798.26 1324.04 797.6 1324.04 796.74V795.28H1326.14ZM1250.11 821.9C1250.11 825.32 1252.47 827.02 1254.85 827.02C1257.25 827.02 1259.61 825.32 1259.61 821.9C1259.61 818.48 1257.25 816.78 1254.85 816.78C1252.47 816.78 1250.11 818.48 1250.11 821.9ZM1247.65 821.9C1247.65 817.26 1251.13 814.52 1254.85 814.52C1258.57 814.52 1262.07 817.26 1262.07 821.9C1262.07 826.56 1258.57 829.3 1254.85 829.3C1251.13 829.3 1247.65 826.56 1247.65 821.9ZM1270.73 827.92C1270.25 828.8 1269.11 829.28 1267.97 829.28C1265.65 829.28 1264.29 827.56 1264.29 825.4V819.26H1266.61V824.98C1266.61 826.18 1267.17 827.2 1268.57 827.2C1269.91 827.2 1270.61 826.3 1270.61 825.02V819.26H1272.93V827.22C1272.93 828.02 1272.99 828.64 1273.03 829H1270.81C1270.77 828.78 1270.73 828.32 1270.73 827.92ZM1278.87 816.28V819.26H1280.89V821.32H1278.87V825.84C1278.87 826.7 1279.25 827.06 1280.11 827.06C1280.43 827.06 1280.81 827 1280.91 826.98V828.9C1280.77 828.96 1280.33 829.12 1279.49 829.12C1277.69 829.12 1276.57 828.04 1276.57 826.22V821.32H1274.77V819.26H1275.27C1276.31 819.26 1276.77 818.6 1276.77 817.74V816.28H1278.87ZM1285.44 829H1283.12V814.52H1285.44V829ZM1292.73 827.22C1294.17 827.22 1295.45 826.16 1295.45 824.12C1295.45 822.1 1294.17 821.06 1292.73 821.06C1291.31 821.06 1290.01 822.1 1290.01 824.12C1290.01 826.14 1291.31 827.22 1292.73 827.22ZM1292.73 818.96C1295.65 818.96 1297.79 821.14 1297.79 824.12C1297.79 827.12 1295.65 829.3 1292.73 829.3C1289.83 829.3 1287.69 827.12 1287.69 824.12C1287.69 821.14 1289.83 818.96 1292.73 818.96ZM1304.47 827.22C1305.91 827.22 1307.19 826.16 1307.19 824.12C1307.19 822.1 1305.91 821.06 1304.47 821.06C1303.05 821.06 1301.75 822.1 1301.75 824.12C1301.75 826.14 1303.05 827.22 1304.47 827.22ZM1304.47 818.96C1307.39 818.96 1309.53 821.14 1309.53 824.12C1309.53 827.12 1307.39 829.3 1304.47 829.3C1301.57 829.3 1299.43 827.12 1299.43 824.12C1299.43 821.14 1301.57 818.96 1304.47 818.96ZM1320.91 819.26L1316.91 823.38L1320.99 829H1318.15L1315.29 825.02L1314.09 826.28V829H1311.79V814.52H1314.09V823.2L1317.83 819.26H1320.91Z" fill="black"/>
<path d="M1374.27 819H1363.21V816.64L1371.07 807.08H1363.43V804.82H1374.17V807.1L1366.21 816.72H1374.27V819ZM1380.61 817.22C1382.05 817.22 1383.33 816.16 1383.33 814.12C1383.33 812.1 1382.05 811.06 1380.61 811.06C1379.19 811.06 1377.89 812.1 1377.89 814.12C1377.89 816.14 1379.19 817.22 1380.61 817.22ZM1380.61 808.96C1383.53 808.96 1385.67 811.14 1385.67 814.12C1385.67 817.12 1383.53 819.3 1380.61 819.3C1377.71 819.3 1375.57 817.12 1375.57 814.12C1375.57 811.14 1377.71 808.96 1380.61 808.96ZM1392.35 817.22C1393.79 817.22 1395.07 816.16 1395.07 814.12C1395.07 812.1 1393.79 811.06 1392.35 811.06C1390.93 811.06 1389.63 812.1 1389.63 814.12C1389.63 816.14 1390.93 817.22 1392.35 817.22ZM1392.35 808.96C1395.27 808.96 1397.41 811.14 1397.41 814.12C1397.41 817.12 1395.27 819.3 1392.35 819.3C1389.45 819.3 1387.31 817.12 1387.31 814.12C1387.31 811.14 1389.45 808.96 1392.35 808.96ZM1401.97 819H1399.67V809.26H1401.89V810.5C1402.45 809.5 1403.67 808.98 1404.77 808.98C1406.05 808.98 1407.17 809.56 1407.69 810.7C1408.45 809.42 1409.59 808.98 1410.85 808.98C1412.61 808.98 1414.29 810.1 1414.29 812.68V819H1412.05V813.06C1412.05 811.92 1411.47 811.06 1410.17 811.06C1408.95 811.06 1408.15 812.02 1408.15 813.22V819H1405.87V813.06C1405.87 811.94 1405.31 811.06 1403.99 811.06C1402.75 811.06 1401.97 811.98 1401.97 813.22V819Z" fill="black"/>
<path d="M1165.16 808.14L1163 808.82C1162.86 807.94 1162.12 806.64 1160.22 806.64C1158.78 806.64 1157.78 807.6 1157.78 808.68C1157.78 809.58 1158.34 810.26 1159.44 810.5L1161.48 810.92C1163.98 811.42 1165.32 813 1165.32 815C1165.32 817.2 1163.54 819.3 1160.3 819.3C1156.7 819.3 1155.04 816.98 1154.82 814.94L1157.06 814.3C1157.2 815.78 1158.26 817.14 1160.3 817.14C1162 817.14 1162.88 816.28 1162.88 815.18C1162.88 814.26 1162.2 813.52 1160.98 813.26L1158.98 812.84C1156.82 812.4 1155.38 810.98 1155.38 808.86C1155.38 806.48 1157.56 804.52 1160.2 804.52C1163.54 804.52 1164.84 806.56 1165.16 808.14ZM1169.93 819H1167.61V804.52H1169.93V819ZM1172.2 816.36C1172.2 814.62 1173.48 813.66 1175.14 813.42L1177.64 813.04C1178.2 812.96 1178.36 812.68 1178.36 812.34C1178.36 811.52 1177.8 810.86 1176.52 810.86C1175.3 810.86 1174.62 811.64 1174.52 812.62L1172.4 812.14C1172.58 810.46 1174.1 808.96 1176.5 808.96C1179.5 808.96 1180.64 810.66 1180.64 812.6V817.44C1180.64 818.32 1180.74 818.9 1180.76 819H1178.6C1178.58 818.94 1178.5 818.54 1178.5 817.76C1178.04 818.5 1177.08 819.3 1175.5 819.3C1173.46 819.3 1172.2 817.9 1172.2 816.36ZM1175.94 817.48C1177.24 817.48 1178.36 816.86 1178.36 814.96V814.52L1175.82 814.9C1175.1 815.02 1174.52 815.42 1174.52 816.22C1174.52 816.88 1175.02 817.48 1175.94 817.48ZM1187.83 811.1C1186.41 811.1 1185.15 812.16 1185.15 814.12C1185.15 816.08 1186.41 817.18 1187.87 817.18C1189.39 817.18 1190.09 816.12 1190.31 815.38L1192.35 816.12C1191.89 817.64 1190.43 819.3 1187.87 819.3C1185.01 819.3 1182.83 817.08 1182.83 814.12C1182.83 811.12 1185.01 808.96 1187.81 808.96C1190.43 808.96 1191.87 810.6 1192.27 812.16L1190.19 812.92C1189.97 812.06 1189.31 811.1 1187.83 811.1ZM1203.54 809.26L1199.54 813.38L1203.62 819H1200.78L1197.92 815.02L1196.72 816.28V819H1194.42V804.52H1196.72V813.2L1200.46 809.26H1203.54Z" fill="black"/>
<path d="M1159.8 736.632C1159.8 741.144 1161.17 744.088 1164.47 744.088C1167.76 744.088 1169.11 741.144 1169.11 736.632C1169.11 732.12 1167.76 729.176 1164.47 729.176C1161.14 729.176 1159.8 732.152 1159.8 736.632ZM1155.99 736.632C1155.99 731.288 1158.1 725.784 1164.47 725.784C1170.8 725.784 1172.92 731.32 1172.92 736.632C1172.92 741.976 1170.8 747.48 1164.47 747.48C1158.1 747.48 1155.99 741.976 1155.99 736.632ZM1198.58 724.568L1182.42 747.928L1179.64 746.584L1195.77 723.256L1198.58 724.568ZM1180.73 736.024C1177.59 736.024 1175.38 733.624 1175.38 730.168C1175.38 726.584 1177.59 724.12 1180.73 724.12C1183.89 724.12 1186.1 726.52 1186.1 729.976C1186.1 733.528 1183.89 736.024 1180.73 736.024ZM1180.73 733.432C1182.23 733.432 1183.29 732.056 1183.29 730.04C1183.29 728.056 1182.26 726.68 1180.76 726.68C1179.25 726.68 1178.2 728.056 1178.2 730.072C1178.2 732.056 1179.25 733.432 1180.73 733.432ZM1197.21 747.48C1194.04 747.48 1191.83 745.048 1191.83 741.592C1191.83 738.008 1194.04 735.544 1197.21 735.576C1200.34 735.608 1202.55 738.008 1202.55 741.432C1202.55 744.984 1200.34 747.48 1197.21 747.48ZM1197.21 744.888C1198.71 744.888 1199.77 743.512 1199.77 741.496C1199.77 739.512 1198.71 738.136 1197.24 738.136C1195.7 738.136 1194.65 739.512 1194.65 741.528C1194.65 743.512 1195.7 744.888 1197.21 744.888Z" fill="#C800A1"/>
<path d="M1251.26 492.456V488.296L1260.09 476.264H1265.02V489.064H1268.5V492.456H1265.02V497H1261.24V492.456H1251.26ZM1261.24 489.064V480.136L1254.71 489.064H1261.24ZM1270.41 492.456V488.296L1279.25 476.264H1284.17V489.064H1287.66V492.456H1284.17V497H1280.4V492.456H1270.41ZM1280.4 489.064V480.136L1273.87 489.064H1280.4ZM1312.77 474.568L1296.61 497.928L1293.83 496.584L1309.95 473.256L1312.77 474.568ZM1294.91 486.024C1291.78 486.024 1289.57 483.624 1289.57 480.168C1289.57 476.584 1291.78 474.12 1294.91 474.12C1298.08 474.12 1300.29 476.52 1300.29 479.976C1300.29 483.528 1298.08 486.024 1294.91 486.024ZM1294.91 483.432C1296.42 483.432 1297.47 482.056 1297.47 480.04C1297.47 478.056 1296.45 476.68 1294.95 476.68C1293.44 476.68 1292.39 478.056 1292.39 480.072C1292.39 482.056 1293.44 483.432 1294.91 483.432ZM1311.39 497.48C1308.23 497.48 1306.02 495.048 1306.02 491.592C1306.02 488.008 1308.23 485.544 1311.39 485.576C1314.53 485.608 1316.74 488.008 1316.74 491.432C1316.74 494.984 1314.53 497.48 1311.39 497.48ZM1311.39 494.888C1312.9 494.888 1313.95 493.512 1313.95 491.496C1313.95 489.512 1312.9 488.136 1311.43 488.136C1309.89 488.136 1308.83 489.512 1308.83 491.528C1308.83 493.512 1309.89 494.888 1311.39 494.888Z" fill="#C800A1"/>
<path d="M1372.12 649H1368.28V632.328C1367.23 633.8 1365.53 634.568 1363.23 634.568H1362.97V630.888H1363.23C1366.55 630.888 1368.31 629.512 1368.31 626.92V626.6H1372.12V649ZM1384.34 649H1380.5V632.328C1379.45 633.8 1377.75 634.568 1375.45 634.568H1375.19V630.888H1375.45C1378.77 630.888 1380.53 629.512 1380.53 626.92V626.6H1384.34V649ZM1410.83 626.568L1394.67 649.928L1391.89 648.584L1408.02 625.256L1410.83 626.568ZM1392.98 638.024C1389.84 638.024 1387.63 635.624 1387.63 632.168C1387.63 628.584 1389.84 626.12 1392.98 626.12C1396.14 626.12 1398.35 628.52 1398.35 631.976C1398.35 635.528 1396.14 638.024 1392.98 638.024ZM1392.98 635.432C1394.48 635.432 1395.54 634.056 1395.54 632.04C1395.54 630.056 1394.51 628.68 1393.01 628.68C1391.5 628.68 1390.45 630.056 1390.45 632.072C1390.45 634.056 1391.5 635.432 1392.98 635.432ZM1409.46 649.48C1406.29 649.48 1404.08 647.048 1404.08 643.592C1404.08 640.008 1406.29 637.544 1409.46 637.576C1412.59 637.608 1414.8 640.008 1414.8 643.432C1414.8 646.984 1412.59 649.48 1409.46 649.48ZM1409.46 646.888C1410.96 646.888 1412.02 645.512 1412.02 643.496C1412.02 641.512 1410.96 640.136 1409.49 640.136C1407.95 640.136 1406.9 641.512 1406.9 643.528C1406.9 645.512 1407.95 646.888 1409.46 646.888Z" fill="#C800A1"/>
<path d="M1471.76 427.48C1465.71 427.48 1462.06 422.648 1462.06 415.736C1462.06 408.6 1465.87 404.12 1471.82 404.12C1476.37 404.12 1479.66 406.968 1480.05 411.256H1476.11C1475.89 409.08 1474.09 407.576 1471.76 407.576C1468.05 407.576 1465.84 410.648 1465.65 415.192V416.28C1466.61 413.816 1469.13 411.928 1472.49 411.928C1476.81 411.928 1479.89 415.032 1479.89 419.544C1479.89 424.216 1476.56 427.48 1471.76 427.48ZM1471.57 424.024C1473.77 424.024 1475.98 422.552 1475.98 419.544C1475.98 416.536 1473.81 415.096 1471.6 415.096C1469.36 415.096 1467.05 416.632 1467.05 419.576C1467.05 422.52 1469.29 424.024 1471.57 424.024ZM1487.5 427H1483.08L1493.29 408.056H1481.61V404.6H1497.51V408.056L1487.5 427ZM1522.32 404.568L1506.16 427.928L1503.37 426.584L1519.5 403.256L1522.32 404.568ZM1504.46 416.024C1501.32 416.024 1499.12 413.624 1499.12 410.168C1499.12 406.584 1501.32 404.12 1504.46 404.12C1507.63 404.12 1509.84 406.52 1509.84 409.976C1509.84 413.528 1507.63 416.024 1504.46 416.024ZM1504.46 413.432C1505.96 413.432 1507.02 412.056 1507.02 410.04C1507.02 408.056 1506 406.68 1504.49 406.68C1502.99 406.68 1501.93 408.056 1501.93 410.072C1501.93 412.056 1502.99 413.432 1504.46 413.432ZM1520.94 427.48C1517.77 427.48 1515.56 425.048 1515.56 421.592C1515.56 418.008 1517.77 415.544 1520.94 415.576C1524.08 415.608 1526.28 418.008 1526.28 421.432C1526.28 424.984 1524.08 427.48 1520.94 427.48ZM1520.94 424.888C1522.44 424.888 1523.5 423.512 1523.5 421.496C1523.5 419.512 1522.44 418.136 1520.97 418.136C1519.44 418.136 1518.38 419.512 1518.38 421.528C1518.38 423.512 1519.44 424.888 1520.94 424.888Z" fill="#C800A1"/>
<path d="M1575.1 572.512C1569.82 572.512 1566.2 569.6 1565.94 564.864H1569.88C1570.1 567.456 1572.12 569.024 1575.1 569.024C1577.85 569.024 1579.58 567.648 1579.58 565.536C1579.58 563.456 1577.88 562.176 1575.06 562.176H1571.58V559.008H1575.06C1577.34 559.008 1578.71 557.568 1578.71 555.808C1578.71 553.952 1577.21 552.576 1574.97 552.576C1572.7 552.576 1570.97 554.016 1570.68 556.224H1566.71C1567.16 551.936 1570.49 549.12 1575.1 549.12C1579.45 549.12 1582.55 551.616 1582.55 555.104C1582.55 557.76 1580.73 559.808 1578.04 560.384C1581.34 560.992 1583.32 563.104 1583.32 566.08C1583.32 569.888 1580.06 572.512 1575.1 572.512ZM1594.6 572.512C1589.32 572.512 1585.7 569.6 1585.44 564.864H1589.38C1589.6 567.456 1591.62 569.024 1594.6 569.024C1597.35 569.024 1599.08 567.648 1599.08 565.536C1599.08 563.456 1597.38 562.176 1594.56 562.176H1591.08V559.008H1594.56C1596.84 559.008 1598.21 557.568 1598.21 555.808C1598.21 553.952 1596.71 552.576 1594.47 552.576C1592.2 552.576 1590.47 554.016 1590.18 556.224H1586.21C1586.66 551.936 1589.99 549.12 1594.6 549.12C1598.95 549.12 1602.05 551.616 1602.05 555.104C1602.05 557.76 1600.23 559.808 1597.54 560.384C1600.84 560.992 1602.82 563.104 1602.82 566.08C1602.82 569.888 1599.56 572.512 1594.6 572.512ZM1628.08 549.568L1611.92 572.928L1609.14 571.584L1625.27 548.256L1628.08 549.568ZM1610.23 561.024C1607.09 561.024 1604.88 558.624 1604.88 555.168C1604.88 551.584 1607.09 549.12 1610.23 549.12C1613.39 549.12 1615.6 551.52 1615.6 554.976C1615.6 558.528 1613.39 561.024 1610.23 561.024ZM1610.23 558.432C1611.73 558.432 1612.79 557.056 1612.79 555.04C1612.79 553.056 1611.76 551.68 1610.26 551.68C1608.75 551.68 1607.7 553.056 1607.7 555.072C1607.7 557.056 1608.75 558.432 1610.23 558.432ZM1626.71 572.48C1623.54 572.48 1621.33 570.048 1621.33 566.592C1621.33 563.008 1623.54 560.544 1626.71 560.576C1629.84 560.608 1632.05 563.008 1632.05 566.432C1632.05 569.984 1629.84 572.48 1626.71 572.48ZM1626.71 569.888C1628.21 569.888 1629.27 568.512 1629.27 566.496C1629.27 564.512 1628.21 563.136 1626.74 563.136C1625.2 563.136 1624.15 564.512 1624.15 566.528C1624.15 568.512 1625.2 569.888 1626.71 569.888Z" fill="#C800A1"/>
<path d="M1684.8 736.632C1684.8 741.144 1686.17 744.088 1689.47 744.088C1692.76 744.088 1694.11 741.144 1694.11 736.632C1694.11 732.12 1692.76 729.176 1689.47 729.176C1686.14 729.176 1684.8 732.152 1684.8 736.632ZM1680.99 736.632C1680.99 731.288 1683.1 725.784 1689.47 725.784C1695.8 725.784 1697.92 731.32 1697.92 736.632C1697.92 741.976 1695.8 747.48 1689.47 747.48C1683.1 747.48 1680.99 741.976 1680.99 736.632ZM1723.58 724.568L1707.42 747.928L1704.64 746.584L1720.77 723.256L1723.58 724.568ZM1705.73 736.024C1702.59 736.024 1700.38 733.624 1700.38 730.168C1700.38 726.584 1702.59 724.12 1705.73 724.12C1708.89 724.12 1711.1 726.52 1711.1 729.976C1711.1 733.528 1708.89 736.024 1705.73 736.024ZM1705.73 733.432C1707.23 733.432 1708.29 732.056 1708.29 730.04C1708.29 728.056 1707.26 726.68 1705.76 726.68C1704.25 726.68 1703.2 728.056 1703.2 730.072C1703.2 732.056 1704.25 733.432 1705.73 733.432ZM1722.21 747.48C1719.04 747.48 1716.83 745.048 1716.83 741.592C1716.83 738.008 1719.04 735.544 1722.21 735.576C1725.34 735.608 1727.55 738.008 1727.55 741.432C1727.55 744.984 1725.34 747.48 1722.21 747.48ZM1722.21 744.888C1723.71 744.888 1724.77 743.512 1724.77 741.496C1724.77 739.512 1723.71 738.136 1722.24 738.136C1720.7 738.136 1719.65 739.512 1719.65 741.528C1719.65 743.512 1720.7 744.888 1722.21 744.888Z" fill="#C800A1"/>
<path d="M1054.71 497H1050.87V492.008H1039.99V488.616L1050.84 474.6H1054.71V488.552H1058.58V492.008H1054.71V497ZM1050.87 479.848L1044.15 488.552H1050.87V479.848ZM1075.46 497H1071.62V492.008H1060.74V488.616L1071.59 474.6H1075.46V488.552H1079.33V492.008H1075.46V497ZM1071.62 479.848L1064.9 488.552H1071.62V479.848ZM1104.1 474.568L1087.94 497.928L1085.15 496.584L1101.28 473.256L1104.1 474.568ZM1086.24 486.024C1083.11 486.024 1080.9 483.624 1080.9 480.168C1080.9 476.584 1083.11 474.12 1086.24 474.12C1089.41 474.12 1091.62 476.52 1091.62 479.976C1091.62 483.528 1089.41 486.024 1086.24 486.024ZM1086.24 483.432C1087.75 483.432 1088.8 482.056 1088.8 480.04C1088.8 478.056 1087.78 476.68 1086.27 476.68C1084.77 476.68 1083.71 478.056 1083.71 480.072C1083.71 482.056 1084.77 483.432 1086.24 483.432ZM1102.72 497.48C1099.55 497.48 1097.35 495.048 1097.35 491.592C1097.35 488.008 1099.55 485.544 1102.72 485.576C1105.86 485.608 1108.07 488.008 1108.07 491.432C1108.07 494.984 1105.86 497.48 1102.72 497.48ZM1102.72 494.888C1104.23 494.888 1105.28 493.512 1105.28 491.496C1105.28 489.512 1104.23 488.136 1102.75 488.136C1101.22 488.136 1100.16 489.512 1100.16 491.528C1100.16 493.512 1101.22 494.888 1102.72 494.888Z" fill="#C800A1"/>
<path d="M1573.17 805.8H1575.69C1578.15 805.8 1580.19 804.22 1580.19 800.94C1580.19 797.62 1578.17 796.02 1575.71 796.02H1573.17V805.8ZM1575.77 808H1570.77V793.82H1575.79C1579.65 793.82 1582.69 796.38 1582.69 800.94C1582.69 805.48 1579.61 808 1575.77 808ZM1587.36 808H1585.06V798.26H1587.36V808ZM1584.7 794.84C1584.7 794 1585.38 793.32 1586.2 793.32C1587.04 793.32 1587.72 794 1587.72 794.84C1587.72 795.68 1587.04 796.34 1586.2 796.34C1585.38 796.34 1584.7 795.68 1584.7 794.84ZM1589.61 808.54L1591.75 807.98C1591.91 809.18 1592.85 810.08 1594.19 810.08C1596.03 810.08 1596.95 809.14 1596.95 807.16V806.14C1596.53 806.9 1595.55 807.56 1594.13 807.56C1591.53 807.56 1589.63 805.56 1589.63 802.82C1589.63 800.22 1591.45 798.08 1594.13 798.08C1595.65 798.08 1596.59 798.7 1597.01 799.5V798.26H1599.25V807.08C1599.25 809.68 1597.91 812.1 1594.25 812.1C1591.67 812.1 1589.87 810.5 1589.61 808.54ZM1594.51 805.58C1595.99 805.58 1597.01 804.5 1597.01 802.82C1597.01 801.16 1595.95 800.08 1594.51 800.08C1593.03 800.08 1591.97 801.16 1591.97 802.82C1591.97 804.52 1592.99 805.58 1594.51 805.58ZM1604.43 808H1602.13V798.26H1604.43V808ZM1601.77 794.84C1601.77 794 1602.45 793.32 1603.27 793.32C1604.11 793.32 1604.79 794 1604.79 794.84C1604.79 795.68 1604.11 796.34 1603.27 796.34C1602.45 796.34 1601.77 795.68 1601.77 794.84ZM1610.37 795.28V798.26H1612.39V800.32H1610.37V804.84C1610.37 805.7 1610.75 806.06 1611.61 806.06C1611.93 806.06 1612.31 806 1612.41 805.98V807.9C1612.27 807.96 1611.83 808.12 1610.99 808.12C1609.19 808.12 1608.07 807.04 1608.07 805.22V800.32H1606.27V798.26H1606.77C1607.81 798.26 1608.27 797.6 1608.27 796.74V795.28H1610.37ZM1614.01 805.36C1614.01 803.62 1615.29 802.66 1616.95 802.42L1619.45 802.04C1620.01 801.96 1620.17 801.68 1620.17 801.34C1620.17 800.52 1619.61 799.86 1618.33 799.86C1617.11 799.86 1616.43 800.64 1616.33 801.62L1614.21 801.14C1614.39 799.46 1615.91 797.96 1618.31 797.96C1621.31 797.96 1622.45 799.66 1622.45 801.6V806.44C1622.45 807.32 1622.55 807.9 1622.57 808H1620.41C1620.39 807.94 1620.31 807.54 1620.31 806.76C1619.85 807.5 1618.89 808.3 1617.31 808.3C1615.27 808.3 1614.01 806.9 1614.01 805.36ZM1617.75 806.48C1619.05 806.48 1620.17 805.86 1620.17 803.96V803.52L1617.63 803.9C1616.91 804.02 1616.33 804.42 1616.33 805.22C1616.33 805.88 1616.83 806.48 1617.75 806.48ZM1627.57 808H1625.25V793.52H1627.57V808ZM1564.02 826.36L1566.04 825.8C1566.12 826.68 1566.78 827.46 1568.02 827.46C1568.98 827.46 1569.48 826.94 1569.48 826.34C1569.48 825.82 1569.12 825.42 1568.34 825.26L1566.9 824.94C1565.18 824.56 1564.28 823.44 1564.28 822.1C1564.28 820.4 1565.84 818.96 1567.86 818.96C1570.58 818.96 1571.46 820.72 1571.62 821.68L1569.66 822.24C1569.58 821.68 1569.16 820.78 1567.86 820.78C1567.04 820.78 1566.46 821.3 1566.46 821.9C1566.46 822.42 1566.84 822.8 1567.44 822.92L1568.92 823.22C1570.76 823.62 1571.72 824.74 1571.72 826.18C1571.72 827.66 1570.52 829.3 1568.04 829.3C1565.22 829.3 1564.14 827.46 1564.02 826.36ZM1576.29 829H1573.99V819.26H1576.29V829ZM1573.63 815.84C1573.63 815 1574.31 814.32 1575.13 814.32C1575.97 814.32 1576.65 815 1576.65 815.84C1576.65 816.68 1575.97 817.34 1575.13 817.34C1574.31 817.34 1573.63 816.68 1573.63 815.84ZM1578.55 829.54L1580.69 828.98C1580.85 830.18 1581.79 831.08 1583.13 831.08C1584.97 831.08 1585.89 830.14 1585.89 828.16V827.14C1585.47 827.9 1584.49 828.56 1583.07 828.56C1580.47 828.56 1578.57 826.56 1578.57 823.82C1578.57 821.22 1580.39 819.08 1583.07 819.08C1584.59 819.08 1585.53 819.7 1585.95 820.5V819.26H1588.19V828.08C1588.19 830.68 1586.85 833.1 1583.19 833.1C1580.61 833.1 1578.81 831.5 1578.55 829.54ZM1583.45 826.58C1584.93 826.58 1585.95 825.5 1585.95 823.82C1585.95 822.16 1584.89 821.08 1583.45 821.08C1581.97 821.08 1580.91 822.16 1580.91 823.82C1580.91 825.52 1581.93 826.58 1583.45 826.58ZM1593.39 823.38V829H1591.07V819.26H1593.33V820.56C1593.97 819.44 1595.13 818.98 1596.21 818.98C1598.59 818.98 1599.72 820.7 1599.72 822.84V829H1597.41V823.24C1597.41 822.04 1596.87 821.08 1595.41 821.08C1594.09 821.08 1593.39 822.1 1593.39 823.38ZM1601.91 826.36C1601.91 824.62 1603.19 823.66 1604.85 823.42L1607.35 823.04C1607.91 822.96 1608.07 822.68 1608.07 822.34C1608.07 821.52 1607.51 820.86 1606.23 820.86C1605.01 820.86 1604.33 821.64 1604.23 822.62L1602.11 822.14C1602.29 820.46 1603.81 818.96 1606.21 818.96C1609.21 818.96 1610.35 820.66 1610.35 822.6V827.44C1610.35 828.32 1610.45 828.9 1610.47 829H1608.31C1608.29 828.94 1608.21 828.54 1608.21 827.76C1607.75 828.5 1606.79 829.3 1605.21 829.3C1603.17 829.3 1601.91 827.9 1601.91 826.36ZM1605.65 827.48C1606.95 827.48 1608.07 826.86 1608.07 824.96V824.52L1605.53 824.9C1604.81 825.02 1604.23 825.42 1604.23 826.22C1604.23 826.88 1604.73 827.48 1605.65 827.48ZM1612.53 829.54L1614.67 828.98C1614.83 830.18 1615.77 831.08 1617.11 831.08C1618.95 831.08 1619.87 830.14 1619.87 828.16V827.14C1619.45 827.9 1618.47 828.56 1617.05 828.56C1614.45 828.56 1612.55 826.56 1612.55 823.82C1612.55 821.22 1614.37 819.08 1617.05 819.08C1618.57 819.08 1619.51 819.7 1619.93 820.5V819.26H1622.17V828.08C1622.17 830.68 1620.83 833.1 1617.17 833.1C1614.59 833.1 1612.79 831.5 1612.53 829.54ZM1617.43 826.58C1618.91 826.58 1619.93 825.5 1619.93 823.82C1619.93 822.16 1618.87 821.08 1617.43 821.08C1615.95 821.08 1614.89 822.16 1614.89 823.82C1614.89 825.52 1615.91 826.58 1617.43 826.58ZM1626.81 823.06H1631.59C1631.55 821.92 1630.79 820.9 1629.19 820.9C1627.73 820.9 1626.89 822.02 1626.81 823.06ZM1631.85 825.6L1633.81 826.22C1633.29 827.92 1631.75 829.3 1629.41 829.3C1626.77 829.3 1624.43 827.38 1624.43 824.08C1624.43 821 1626.71 818.96 1629.17 818.96C1632.17 818.96 1633.93 820.94 1633.93 824.02C1633.93 824.4 1633.89 824.72 1633.87 824.76H1626.75C1626.81 826.24 1627.97 827.3 1629.41 827.3C1630.81 827.3 1631.53 826.56 1631.85 825.6Z" fill="black"/>
<path d="M1670.52 800.34H1673.02C1674.54 800.34 1675.46 799.5 1675.46 798.16C1675.46 796.8 1674.54 795.94 1673.02 795.94H1670.52V800.34ZM1673.38 802.46H1670.52V808H1668.12V793.82H1673.38C1676.1 793.82 1677.9 795.66 1677.9 798.14C1677.9 800.64 1676.1 802.46 1673.38 802.46ZM1682.21 802.28V808H1679.89V793.52H1682.21V799.2C1682.87 798.34 1683.97 797.98 1684.99 797.98C1687.39 797.98 1688.55 799.7 1688.55 801.84V808H1686.23V802.24C1686.23 801.04 1685.69 800.08 1684.23 800.08C1682.95 800.08 1682.25 801.04 1682.21 802.28ZM1694.21 811.94H1691.73L1694.07 806.84L1689.91 798.26H1692.53L1695.33 804.42L1697.95 798.26H1700.41L1694.21 811.94ZM1701.13 805.36L1703.15 804.8C1703.23 805.68 1703.89 806.46 1705.13 806.46C1706.09 806.46 1706.59 805.94 1706.59 805.34C1706.59 804.82 1706.23 804.42 1705.45 804.26L1704.01 803.94C1702.29 803.56 1701.39 802.44 1701.39 801.1C1701.39 799.4 1702.95 797.96 1704.97 797.96C1707.69 797.96 1708.57 799.72 1708.73 800.68L1706.77 801.24C1706.69 800.68 1706.27 799.78 1704.97 799.78C1704.15 799.78 1703.57 800.3 1703.57 800.9C1703.57 801.42 1703.95 801.8 1704.55 801.92L1706.03 802.22C1707.87 802.62 1708.83 803.74 1708.83 805.18C1708.83 806.66 1707.63 808.3 1705.15 808.3C1702.33 808.3 1701.25 806.46 1701.13 805.36ZM1713.4 808H1711.1V798.26H1713.4V808ZM1710.74 794.84C1710.74 794 1711.42 793.32 1712.24 793.32C1713.08 793.32 1713.76 794 1713.76 794.84C1713.76 795.68 1713.08 796.34 1712.24 796.34C1711.42 796.34 1710.74 795.68 1710.74 794.84ZM1720.66 800.1C1719.24 800.1 1717.98 801.16 1717.98 803.12C1717.98 805.08 1719.24 806.18 1720.7 806.18C1722.22 806.18 1722.92 805.12 1723.14 804.38L1725.18 805.12C1724.72 806.64 1723.26 808.3 1720.7 808.3C1717.84 808.3 1715.66 806.08 1715.66 803.12C1715.66 800.12 1717.84 797.96 1720.64 797.96C1723.26 797.96 1724.7 799.6 1725.1 801.16L1723.02 801.92C1722.8 801.06 1722.14 800.1 1720.66 800.1ZM1726.66 805.36C1726.66 803.62 1727.94 802.66 1729.6 802.42L1732.1 802.04C1732.66 801.96 1732.82 801.68 1732.82 801.34C1732.82 800.52 1732.26 799.86 1730.98 799.86C1729.76 799.86 1729.08 800.64 1728.98 801.62L1726.86 801.14C1727.04 799.46 1728.56 797.96 1730.96 797.96C1733.96 797.96 1735.1 799.66 1735.1 801.6V806.44C1735.1 807.32 1735.2 807.9 1735.22 808H1733.06C1733.04 807.94 1732.96 807.54 1732.96 806.76C1732.5 807.5 1731.54 808.3 1729.96 808.3C1727.92 808.3 1726.66 806.9 1726.66 805.36ZM1730.4 806.48C1731.7 806.48 1732.82 805.86 1732.82 803.96V803.52L1730.28 803.9C1729.56 804.02 1728.98 804.42 1728.98 805.22C1728.98 805.88 1729.48 806.48 1730.4 806.48ZM1740.22 808H1737.9V793.52H1740.22V808ZM1669.02 826.36L1671.04 825.8C1671.12 826.68 1671.78 827.46 1673.02 827.46C1673.98 827.46 1674.48 826.94 1674.48 826.34C1674.48 825.82 1674.12 825.42 1673.34 825.26L1671.9 824.94C1670.18 824.56 1669.28 823.44 1669.28 822.1C1669.28 820.4 1670.84 818.96 1672.86 818.96C1675.58 818.96 1676.46 820.72 1676.62 821.68L1674.66 822.24C1674.58 821.68 1674.16 820.78 1672.86 820.78C1672.04 820.78 1671.46 821.3 1671.46 821.9C1671.46 822.42 1671.84 822.8 1672.44 822.92L1673.92 823.22C1675.76 823.62 1676.72 824.74 1676.72 826.18C1676.72 827.66 1675.52 829.3 1673.04 829.3C1670.22 829.3 1669.14 827.46 1669.02 826.36ZM1681.29 829H1678.99V819.26H1681.29V829ZM1678.63 815.84C1678.63 815 1679.31 814.32 1680.13 814.32C1680.97 814.32 1681.65 815 1681.65 815.84C1681.65 816.68 1680.97 817.34 1680.13 817.34C1679.31 817.34 1678.63 816.68 1678.63 815.84ZM1683.55 829.54L1685.69 828.98C1685.85 830.18 1686.79 831.08 1688.13 831.08C1689.97 831.08 1690.89 830.14 1690.89 828.16V827.14C1690.47 827.9 1689.49 828.56 1688.07 828.56C1685.47 828.56 1683.57 826.56 1683.57 823.82C1683.57 821.22 1685.39 819.08 1688.07 819.08C1689.59 819.08 1690.53 819.7 1690.95 820.5V819.26H1693.19V828.08C1693.19 830.68 1691.85 833.1 1688.19 833.1C1685.61 833.1 1683.81 831.5 1683.55 829.54ZM1688.45 826.58C1689.93 826.58 1690.95 825.5 1690.95 823.82C1690.95 822.16 1689.89 821.08 1688.45 821.08C1686.97 821.08 1685.91 822.16 1685.91 823.82C1685.91 825.52 1686.93 826.58 1688.45 826.58ZM1698.39 823.38V829H1696.07V819.26H1698.33V820.56C1698.97 819.44 1700.13 818.98 1701.21 818.98C1703.59 818.98 1704.72 820.7 1704.72 822.84V829H1702.41V823.24C1702.41 822.04 1701.87 821.08 1700.41 821.08C1699.09 821.08 1698.39 822.1 1698.39 823.38ZM1706.91 826.36C1706.91 824.62 1708.19 823.66 1709.85 823.42L1712.35 823.04C1712.91 822.96 1713.07 822.68 1713.07 822.34C1713.07 821.52 1712.51 820.86 1711.23 820.86C1710.01 820.86 1709.33 821.64 1709.23 822.62L1707.11 822.14C1707.29 820.46 1708.81 818.96 1711.21 818.96C1714.21 818.96 1715.35 820.66 1715.35 822.6V827.44C1715.35 828.32 1715.45 828.9 1715.47 829H1713.31C1713.29 828.94 1713.21 828.54 1713.21 827.76C1712.75 828.5 1711.79 829.3 1710.21 829.3C1708.17 829.3 1706.91 827.9 1706.91 826.36ZM1710.65 827.48C1711.95 827.48 1713.07 826.86 1713.07 824.96V824.52L1710.53 824.9C1709.81 825.02 1709.23 825.42 1709.23 826.22C1709.23 826.88 1709.73 827.48 1710.65 827.48ZM1717.53 829.54L1719.67 828.98C1719.83 830.18 1720.77 831.08 1722.11 831.08C1723.95 831.08 1724.87 830.14 1724.87 828.16V827.14C1724.45 827.9 1723.47 828.56 1722.05 828.56C1719.45 828.56 1717.55 826.56 1717.55 823.82C1717.55 821.22 1719.37 819.08 1722.05 819.08C1723.57 819.08 1724.51 819.7 1724.93 820.5V819.26H1727.17V828.08C1727.17 830.68 1725.83 833.1 1722.17 833.1C1719.59 833.1 1717.79 831.5 1717.53 829.54ZM1722.43 826.58C1723.91 826.58 1724.93 825.5 1724.93 823.82C1724.93 822.16 1723.87 821.08 1722.43 821.08C1720.95 821.08 1719.89 822.16 1719.89 823.82C1719.89 825.52 1720.91 826.58 1722.43 826.58ZM1731.81 823.06H1736.59C1736.55 821.92 1735.79 820.9 1734.19 820.9C1732.73 820.9 1731.89 822.02 1731.81 823.06ZM1736.85 825.6L1738.81 826.22C1738.29 827.92 1736.75 829.3 1734.41 829.3C1731.77 829.3 1729.43 827.38 1729.43 824.08C1729.43 821 1731.71 818.96 1734.17 818.96C1737.17 818.96 1738.93 820.94 1738.93 824.02C1738.93 824.4 1738.89 824.72 1738.87 824.76H1731.75C1731.81 826.24 1732.97 827.3 1734.41 827.3C1735.81 827.3 1736.53 826.56 1736.85 825.6Z" fill="black"/>
<path d="M892.983 286H888.263V268.24H881.983V264.96C885.703 264.88 888.263 262.8 888.823 260.08H892.983V286ZM902.312 273.04C902.312 278.68 904.032 282.36 908.152 282.36C912.272 282.36 913.952 278.68 913.952 273.04C913.952 267.4 912.272 263.72 908.152 263.72C903.992 263.72 902.312 267.44 902.312 273.04ZM897.552 273.04C897.552 266.36 900.192 259.48 908.152 259.48C916.072 259.48 918.712 266.4 918.712 273.04C918.712 279.72 916.072 286.6 908.152 286.6C900.192 286.6 897.552 279.72 897.552 273.04ZM927.234 273.04C927.234 278.68 928.954 282.36 933.074 282.36C937.194 282.36 938.874 278.68 938.874 273.04C938.874 267.4 937.194 263.72 933.074 263.72C928.914 263.72 927.234 267.44 927.234 273.04ZM922.474 273.04C922.474 266.36 925.114 259.48 933.074 259.48C940.994 259.48 943.634 266.4 943.634 273.04C943.634 279.72 940.994 286.6 933.074 286.6C925.114 286.6 922.474 279.72 922.474 273.04ZM976.236 258.16L955.916 287.48L951.476 285.4L971.796 256.08L976.236 258.16ZM953.276 272.36C949.156 272.36 946.316 269.36 946.316 265C946.316 260.44 949.156 257.28 953.276 257.28C957.396 257.28 960.276 260.28 960.276 264.64C960.276 269.2 957.396 272.36 953.276 272.36ZM953.276 268.28C954.796 268.28 955.876 266.84 955.876 264.76C955.876 262.72 954.836 261.32 953.356 261.32C951.796 261.32 950.716 262.72 950.716 264.8C950.716 266.88 951.796 268.28 953.276 268.28ZM974.196 286.72C970.076 286.72 967.196 283.72 967.196 279.36C967.196 274.72 970.076 271.56 974.196 271.64C978.316 271.72 981.196 274.76 981.196 279.04C981.196 283.56 978.316 286.72 974.196 286.72ZM974.196 282.68C975.716 282.68 976.796 281.24 976.796 279.16C976.796 277.12 975.756 275.72 974.276 275.72C972.716 275.72 971.596 277.12 971.596 279.2C971.596 281.28 972.676 282.68 974.196 282.68Z" fill="black"/>
<path d="M922.479 373.08V377.28C920.319 379.08 912.999 385.64 911.839 399H906.879C907.999 384.52 917.039 377.28 917.039 377.28H903.119V373.08H922.479ZM924.411 391.84L928.931 390.68C929.131 393.44 931.171 395.52 934.171 395.52C936.891 395.52 939.091 393.68 939.091 390.8C939.091 387.6 936.731 386 934.091 386C932.251 386 930.691 386.76 929.771 387.8L925.251 386.16L928.451 373.08H942.651V377.28H931.691L930.091 383.84C931.211 382.68 933.211 382.04 935.051 382.04C940.211 382.04 943.931 385.24 943.931 390.68C943.931 395.56 940.171 399.64 934.171 399.64C928.571 399.64 924.731 395.92 924.411 391.84ZM976.236 371.16L955.916 400.48L951.476 398.4L971.796 369.08L976.236 371.16ZM953.276 385.36C949.156 385.36 946.316 382.36 946.316 378C946.316 373.44 949.156 370.28 953.276 370.28C957.396 370.28 960.276 373.28 960.276 377.64C960.276 382.2 957.396 385.36 953.276 385.36ZM953.276 381.28C954.796 381.28 955.876 379.84 955.876 377.76C955.876 375.72 954.836 374.32 953.356 374.32C951.796 374.32 950.716 375.72 950.716 377.8C950.716 379.88 951.796 381.28 953.276 381.28ZM974.196 399.72C970.076 399.72 967.196 396.72 967.196 392.36C967.196 387.72 970.076 384.56 974.196 384.64C978.316 384.72 981.196 387.76 981.196 392.04C981.196 396.56 978.316 399.72 974.196 399.72ZM974.196 395.68C975.716 395.68 976.796 394.24 976.796 392.16C976.796 390.12 975.756 388.72 974.276 388.72C972.716 388.72 971.596 390.12 971.596 392.2C971.596 394.28 972.676 395.68 974.196 395.68Z" fill="black"/>
<path d="M899.489 504.84L904.009 503.68C904.209 506.44 906.249 508.52 909.249 508.52C911.969 508.52 914.169 506.68 914.169 503.8C914.169 500.6 911.809 499 909.169 499C907.329 499 905.769 499.76 904.849 500.8L900.329 499.16L903.529 486.08H917.729V490.28H906.769L905.169 496.84C906.289 495.68 908.289 495.04 910.129 495.04C915.289 495.04 919.009 498.24 919.009 503.68C919.009 508.56 915.249 512.64 909.249 512.64C903.649 512.64 899.809 508.92 899.489 504.84ZM927.234 499.04C927.234 504.68 928.954 508.36 933.074 508.36C937.194 508.36 938.874 504.68 938.874 499.04C938.874 493.4 937.194 489.72 933.074 489.72C928.914 489.72 927.234 493.44 927.234 499.04ZM922.474 499.04C922.474 492.36 925.114 485.48 933.074 485.48C940.994 485.48 943.634 492.4 943.634 499.04C943.634 505.72 940.994 512.6 933.074 512.6C925.114 512.6 922.474 505.72 922.474 499.04ZM976.236 484.16L955.916 513.48L951.476 511.4L971.796 482.08L976.236 484.16ZM953.276 498.36C949.156 498.36 946.316 495.36 946.316 491C946.316 486.44 949.156 483.28 953.276 483.28C957.396 483.28 960.276 486.28 960.276 490.64C960.276 495.2 957.396 498.36 953.276 498.36ZM953.276 494.28C954.796 494.28 955.876 492.84 955.876 490.76C955.876 488.72 954.836 487.32 953.356 487.32C951.796 487.32 950.716 488.72 950.716 490.8C950.716 492.88 951.796 494.28 953.276 494.28ZM974.196 512.72C970.076 512.72 967.196 509.72 967.196 505.36C967.196 500.72 970.076 497.56 974.196 497.64C978.316 497.72 981.196 500.76 981.196 505.04C981.196 509.56 978.316 512.72 974.196 512.72ZM974.196 508.68C975.716 508.68 976.796 507.24 976.796 505.16C976.796 503.12 975.756 501.72 974.276 501.72C972.716 501.72 971.596 503.12 971.596 505.2C971.596 507.28 972.676 508.68 974.196 508.68Z" fill="black"/>
<path d="M907.548 608.8L902.908 608.48C902.868 608.12 902.788 607.52 902.788 607C902.788 602.52 906.148 598.48 912.028 598.48C917.748 598.48 921.148 602.2 921.148 606.64C921.148 610 919.268 612.76 916.148 614.68L911.108 617.8C909.868 618.56 908.828 619.48 908.468 620.76H921.308V625H902.548C902.628 620.56 904.188 617.08 908.708 614.28L912.988 611.6C915.308 610.16 916.308 608.6 916.308 606.72C916.308 604.6 914.868 602.68 911.948 602.68C908.908 602.68 907.428 604.8 907.428 607.48C907.428 607.88 907.508 608.36 907.548 608.8ZM924.411 617.84L928.931 616.68C929.131 619.44 931.171 621.52 934.171 621.52C936.891 621.52 939.091 619.68 939.091 616.8C939.091 613.6 936.731 612 934.091 612C932.251 612 930.691 612.76 929.771 613.8L925.251 612.16L928.451 599.08H942.651V603.28H931.691L930.091 609.84C931.211 608.68 933.211 608.04 935.051 608.04C940.211 608.04 943.931 611.24 943.931 616.68C943.931 621.56 940.171 625.64 934.171 625.64C928.571 625.64 924.731 621.92 924.411 617.84ZM976.236 597.16L955.916 626.48L951.476 624.4L971.796 595.08L976.236 597.16ZM953.276 611.36C949.156 611.36 946.316 608.36 946.316 604C946.316 599.44 949.156 596.28 953.276 596.28C957.396 596.28 960.276 599.28 960.276 603.64C960.276 608.2 957.396 611.36 953.276 611.36ZM953.276 607.28C954.796 607.28 955.876 605.84 955.876 603.76C955.876 601.72 954.836 600.32 953.356 600.32C951.796 600.32 950.716 601.72 950.716 603.8C950.716 605.88 951.796 607.28 953.276 607.28ZM974.196 625.72C970.076 625.72 967.196 622.72 967.196 618.36C967.196 613.72 970.076 610.56 974.196 610.64C978.316 610.72 981.196 613.76 981.196 618.04C981.196 622.56 978.316 625.72 974.196 625.72ZM974.196 621.68C975.716 621.68 976.796 620.24 976.796 618.16C976.796 616.12 975.756 614.72 974.276 614.72C972.716 614.72 971.596 616.12 971.596 618.2C971.596 620.28 972.676 621.68 974.196 621.68Z" fill="black"/>
<path d="M927.234 725.04C927.234 730.68 928.954 734.36 933.074 734.36C937.194 734.36 938.874 730.68 938.874 725.04C938.874 719.4 937.194 715.72 933.074 715.72C928.914 715.72 927.234 719.44 927.234 725.04ZM922.474 725.04C922.474 718.36 925.114 711.48 933.074 711.48C940.994 711.48 943.634 718.4 943.634 725.04C943.634 731.72 940.994 738.6 933.074 738.6C925.114 738.6 922.474 731.72 922.474 725.04ZM976.236 710.16L955.916 739.48L951.476 737.4L971.796 708.08L976.236 710.16ZM953.276 724.36C949.156 724.36 946.316 721.36 946.316 717C946.316 712.44 949.156 709.28 953.276 709.28C957.396 709.28 960.276 712.28 960.276 716.64C960.276 721.2 957.396 724.36 953.276 724.36ZM953.276 720.28C954.796 720.28 955.876 718.84 955.876 716.76C955.876 714.72 954.836 713.32 953.356 713.32C951.796 713.32 950.716 714.72 950.716 716.8C950.716 718.88 951.796 720.28 953.276 720.28ZM974.196 738.72C970.076 738.72 967.196 735.72 967.196 731.36C967.196 726.72 970.076 723.56 974.196 723.64C978.316 723.72 981.196 726.76 981.196 731.04C981.196 735.56 978.316 738.72 974.196 738.72ZM974.196 734.68C975.716 734.68 976.796 733.24 976.796 731.16C976.796 729.12 975.756 727.72 974.276 727.72C972.716 727.72 971.596 729.12 971.596 731.2C971.596 733.28 972.676 734.68 974.196 734.68Z" fill="black"/>
<rect x="1036" y="512" width="75" height="248" fill="#1226AA"/>
<rect x="1456" y="442" width="75" height="318" fill="#1226AA"/>
<rect x="1561" y="587" width="75" height="173" fill="#1226AA"/>
<rect x="1246" y="512" width="75" height="248" fill="#1226AA"/>
<rect x="1351" y="664" width="75" height="96" fill="#1226AA"/>
<path d="M1741 761H1006V234" stroke="black" stroke-width="4"/>
</g>
<defs>
<clipPath id="clip0_455_62">
<rect width="1748" height="850" fill="white"/>
</clipPath>
</defs>
</svg>
